# Made in Blockbench 5.1.6
mtllib newFence.mtl

o fence_south
v -0.5 0.28125 0.03125
v -0.5 0.25 -0.03125
v -0.5 0.25 0.03125
v -0.5 0.28125 -0.03125
v -0.5 0.375 0.0625
v -0.5 0.28125 0.0625
v -0.5 0.28125 -0.0625
v -0.5 0.375 0.03125
v -0.5 0.375 -0.03125
v -0.5 0.375 -0.0625
v -0.5 0.40625 0.03125
v -0.5 0.40625 -0.03125
v -0.5 0.6875 0.03125
v -0.5 0.65625 -0.03125
v -0.5 0.65625 0.03125
v -0.5 0.6875 -0.03125
v -0.5 0.78125 0.0625
v -0.5 0.6875 -0.0625
v -0.5 0.6875 0.0625
v -0.5 0.78125 0.03125
v -0.5 0.78125 -0.03125
v -0.5 0.78125 -0.0625
v -0.5 0.8125 0.03125
v -0.5 0.8125 -0.03125
v -0.15625 0.25 0.03125
v -0.15625 0.25 -0.03125
v -0.15625 0.28125 0.03125
v -0.15625 0.28125 -0.03125
v -0.15625 0.28125 0.0625
v -0.15625 0.375 0.0625
v -0.15625 0.28125 -0.0625
v -0.15625 0.375 0.03125
v -0.15625 0.375 -0.03125
v -0.15625 0.375 -0.0625
v -0.15625 0.40625 0.03125
v -0.15625 0.40625 -0.03125
v -0.15625 0.65625 0.03125
v -0.15625 0.65625 -0.03125
v -0.15625 0.6875 0.03125
v -0.15625 0.6875 -0.03125
v -0.15625 0.78125 0.0625
v -0.15625 0.6875 -0.0625
v -0.15625 0.6875 0.0625
v -0.15625 0.78125 0.03125
v -0.15625 0.78125 -0.03125
v -0.15625 0.78125 -0.0625
v -0.15625 0.8125 0.03125
v -0.15625 0.8125 -0.03125
v -0.15625 0.28125 0.0625
v -0.5 0.375 0.0625
v -0.5 0.28125 0.0625
v -0.15625 0.375 0.0625
v -0.15625 0.6875 0.0625
v -0.5 0.78125 0.0625
v -0.5 0.6875 0.0625
v -0.15625 0.78125 0.0625
v -0.15625 0.25 0.03125
v -0.5 0.28125 0.03125
v -0.5 0.25 0.03125
v -0.15625 0.28125 0.03125
v -0.15625 0.375 0.03125
v -0.5 0.40625 0.03125
v -0.5 0.375 0.03125
v -0.15625 0.40625 0.03125
v -0.15625 0.65625 0.03125
v -0.5 0.6875 0.03125
v -0.5 0.65625 0.03125
v -0.15625 0.6875 0.03125
v -0.15625 0.78125 0.03125
v -0.5 0.8125 0.03125
v -0.5 0.78125 0.03125
v -0.15625 0.8125 0.03125
v -0.5 0.25 -0.03125
v -0.5 0.28125 -0.03125
v -0.15625 0.25 -0.03125
v -0.15625 0.28125 -0.03125
v -0.5 0.375 -0.03125
v -0.5 0.40625 -0.03125
v -0.15625 0.375 -0.03125
v -0.15625 0.40625 -0.03125
v -0.5 0.65625 -0.03125
v -0.5 0.6875 -0.03125
v -0.15625 0.65625 -0.03125
v -0.15625 0.6875 -0.03125
v -0.5 0.78125 -0.03125
v -0.5 0.8125 -0.03125
v -0.15625 0.78125 -0.03125
v -0.15625 0.8125 -0.03125
v -0.5 0.28125 -0.0625
v -0.5 0.375 -0.0625
v -0.15625 0.28125 -0.0625
v -0.15625 0.375 -0.0625
v -0.5 0.6875 -0.0625
v -0.5 0.78125 -0.0625
v -0.15625 0.6875 -0.0625
v -0.15625 0.78125 -0.0625
v -0.5 0.25 -0.03125
v -0.15625 0.25 0.03125
v -0.5 0.25 0.03125
v -0.15625 0.25 -0.03125
v -0.5 0.28125 0.03125
v -0.15625 0.28125 0.0625
v -0.5 0.28125 0.0625
v -0.15625 0.28125 0.03125
v -0.5 0.28125 -0.0625
v -0.15625 0.28125 -0.03125
v -0.5 0.28125 -0.03125
v -0.15625 0.28125 -0.0625
v -0.5 0.65625 -0.03125
v -0.15625 0.65625 0.03125
v -0.5 0.65625 0.03125
v -0.15625 0.65625 -0.03125
v -0.5 0.6875 0.03125
v -0.15625 0.6875 0.0625
v -0.5 0.6875 0.0625
v -0.15625 0.6875 0.03125
v -0.5 0.6875 -0.0625
v -0.15625 0.6875 -0.03125
v -0.5 0.6875 -0.03125
v -0.15625 0.6875 -0.0625
v -0.5 0.375 0.0625
v -0.15625 0.375 0.0625
v -0.5 0.375 0.03125
v -0.15625 0.375 0.03125
v -0.5 0.375 -0.03125
v -0.15625 0.375 -0.03125
v -0.5 0.375 -0.0625
v -0.15625 0.375 -0.0625
v -0.5 0.40625 0.03125
v -0.15625 0.40625 0.03125
v -0.5 0.40625 -0.03125
v -0.15625 0.40625 -0.03125
v -0.5 0.78125 0.0625
v -0.15625 0.78125 0.0625
v -0.5 0.78125 0.03125
v -0.15625 0.78125 0.03125
v -0.5 0.78125 -0.03125
v -0.15625 0.78125 -0.03125
v -0.5 0.78125 -0.0625
v -0.15625 0.78125 -0.0625
v -0.5 0.8125 0.03125
v -0.15625 0.8125 0.03125
v -0.5 0.8125 -0.03125
v -0.15625 0.8125 -0.03125
vt 0.3984375 0.65625
vt 0.3828125 0.6484375
vt 0.3984375 0.6484375
vt 0.3828125 0.65625
vt 0.3828125 0.6484375
vt 0.3984375 0.65625
vt 0.40625 0.6796875
vt 0.3984375 0.65625
vt 0.40625 0.65625
vt 0.40625 0.6796875
vt 0.375 0.65625
vt 0.3828125 0.65625
vt 0.40625 0.6796875
vt 0.3828125 0.65625
vt 0.3984375 0.65625
vt 0.3984375 0.6796875
vt 0.375 0.65625
vt 0.40625 0.6796875
vt 0.3828125 0.6796875
vt 0.375 0.65625
vt 0.3984375 0.6796875
vt 0.375 0.6796875
vt 0.375 0.65625
vt 0.3828125 0.6796875
vt 0.3984375 0.6875
vt 0.3828125 0.6796875
vt 0.3984375 0.6796875
vt 0.3828125 0.6875
vt 0.3828125 0.6796875
vt 0.3984375 0.6875
vt 0.3984375 0.609375
vt 0.3828125 0.6015625
vt 0.3984375 0.6015625
vt 0.3828125 0.609375
vt 0.3828125 0.6015625
vt 0.3984375 0.609375
vt 0.40625 0.6328125
vt 0.3828125 0.609375
vt 0.3984375 0.609375
vt 0.40625 0.6328125
vt 0.375 0.609375
vt 0.3828125 0.609375
vt 0.40625 0.6328125
vt 0.3984375 0.609375
vt 0.40625 0.609375
vt 0.3984375 0.6328125
vt 0.375 0.609375
vt 0.40625 0.6328125
vt 0.3828125 0.6328125
vt 0.375 0.609375
vt 0.3984375 0.6328125
vt 0.375 0.6328125
vt 0.375 0.609375
vt 0.3828125 0.6328125
vt 0.3984375 0.640625
vt 0.3828125 0.6328125
vt 0.3984375 0.6328125
vt 0.3828125 0.640625
vt 0.3828125 0.6328125
vt 0.3984375 0.640625
vt 0.3984375 0.8359375
vt 0.4140625 0.8359375
vt 0.3984375 0.84375
vt 0.3984375 0.84375
vt 0.4140625 0.8359375
vt 0.4140625 0.84375
vt 0.390625 0.84375
vt 0.3984375 0.84375
vt 0.390625 0.8671875
vt 0.4140625 0.84375
vt 0.421875 0.84375
vt 0.390625 0.8671875
vt 0.3984375 0.84375
vt 0.4140625 0.84375
vt 0.390625 0.8671875
vt 0.390625 0.8671875
vt 0.421875 0.84375
vt 0.3984375 0.8671875
vt 0.3984375 0.8671875
vt 0.421875 0.84375
vt 0.4140625 0.8671875
vt 0.4140625 0.8671875
vt 0.421875 0.84375
vt 0.421875 0.8671875
vt 0.3984375 0.8671875
vt 0.4140625 0.8671875
vt 0.3984375 0.875
vt 0.3984375 0.875
vt 0.4140625 0.8671875
vt 0.4140625 0.875
vt 0.3984375 0.7890625
vt 0.4140625 0.7890625
vt 0.3984375 0.796875
vt 0.3984375 0.796875
vt 0.4140625 0.7890625
vt 0.4140625 0.796875
vt 0.3984375 0.796875
vt 0.4140625 0.796875
vt 0.390625 0.8203125
vt 0.4140625 0.796875
vt 0.421875 0.796875
vt 0.390625 0.8203125
vt 0.390625 0.796875
vt 0.3984375 0.796875
vt 0.390625 0.8203125
vt 0.390625 0.8203125
vt 0.421875 0.796875
vt 0.3984375 0.8203125
vt 0.3984375 0.8203125
vt 0.421875 0.796875
vt 0.4140625 0.8203125
vt 0.4140625 0.8203125
vt 0.421875 0.796875
vt 0.421875 0.8203125
vt 0.3984375 0.8203125
vt 0.4140625 0.8203125
vt 0.3984375 0.828125
vt 0.3984375 0.828125
vt 0.4140625 0.8203125
vt 0.4140625 0.828125
vt 0.2890625 0.9296875
vt 0.203125 0.953125
vt 0.203125 0.9296875
vt 0.2890625 0.953125
vt 0.203125 0.953125
vt 0.2890625 0.9296875
vt 0.2109375 0.7734375
vt 0.125 0.796875
vt 0.125 0.7734375
vt 0.2109375 0.796875
vt 0.125 0.796875
vt 0.2109375 0.7734375
vt 0.5390625 0.8359375
vt 0.453125 0.84375
vt 0.453125 0.8359375
vt 0.5390625 0.84375
vt 0.453125 0.84375
vt 0.5390625 0.8359375
vt 0.5390625 0.8203125
vt 0.453125 0.828125
vt 0.453125 0.8203125
vt 0.5390625 0.828125
vt 0.453125 0.828125
vt 0.5390625 0.8203125
vt 0.5390625 0.8046875
vt 0.453125 0.8125
vt 0.453125 0.8046875
vt 0.5390625 0.8125
vt 0.453125 0.8125
vt 0.5390625 0.8046875
vt 0.5390625 0.7890625
vt 0.453125 0.796875
vt 0.453125 0.7890625
vt 0.5390625 0.796875
vt 0.453125 0.796875
vt 0.5390625 0.7890625
vt 0.5390625 0.7734375
vt 0.5390625 0.78125
vt 0.453125 0.7734375
vt 0.453125 0.7734375
vt 0.5390625 0.78125
vt 0.453125 0.78125
vt 0.5390625 0.7578125
vt 0.5390625 0.765625
vt 0.453125 0.7578125
vt 0.453125 0.7578125
vt 0.5390625 0.765625
vt 0.453125 0.765625
vt 0.5390625 0.7421875
vt 0.5390625 0.75
vt 0.453125 0.7421875
vt 0.453125 0.7421875
vt 0.5390625 0.75
vt 0.453125 0.75
vt 0.5390625 0.7265625
vt 0.5390625 0.734375
vt 0.453125 0.7265625
vt 0.453125 0.7265625
vt 0.5390625 0.734375
vt 0.453125 0.734375
vt 0.3046875 0.8984375
vt 0.3046875 0.921875
vt 0.21875 0.8984375
vt 0.21875 0.8984375
vt 0.3046875 0.921875
vt 0.21875 0.921875
vt 0.3046875 0.8671875
vt 0.3046875 0.890625
vt 0.21875 0.8671875
vt 0.21875 0.8671875
vt 0.3046875 0.890625
vt 0.21875 0.890625
vt 0.34375 0.921875
vt 0.4296875 0.9375
vt 0.34375 0.9375
vt 0.4296875 0.921875
vt 0.4296875 0.9375
vt 0.34375 0.921875
vt 0.453125 0.7109375
vt 0.5390625 0.71875
vt 0.453125 0.71875
vt 0.5390625 0.7109375
vt 0.5390625 0.71875
vt 0.453125 0.7109375
vt 0.453125 0.6953125
vt 0.5390625 0.703125
vt 0.453125 0.703125
vt 0.5390625 0.6953125
vt 0.5390625 0.703125
vt 0.453125 0.6953125
vt 0.34375 0.90625
vt 0.4296875 0.921875
vt 0.34375 0.921875
vt 0.4296875 0.90625
vt 0.4296875 0.921875
vt 0.34375 0.90625
vt 0.34375 0.5390625
vt 0.4296875 0.546875
vt 0.34375 0.546875
vt 0.4296875 0.5390625
vt 0.4296875 0.546875
vt 0.34375 0.5390625
vt 0.4375 0.5390625
vt 0.5234375 0.546875
vt 0.4375 0.546875
vt 0.5234375 0.5390625
vt 0.5234375 0.546875
vt 0.4375 0.5390625
vt 0.46875 0.9921875
vt 0.5546875 0.9921875
vt 0.46875 1
vt 0.46875 1
vt 0.5546875 0.9921875
vt 0.5546875 1
vt 0.46875 0.9765625
vt 0.5546875 0.9765625
vt 0.46875 0.984375
vt 0.46875 0.984375
vt 0.5546875 0.9765625
vt 0.5546875 0.984375
vt 0.34375 0.890625
vt 0.4296875 0.890625
vt 0.34375 0.90625
vt 0.34375 0.90625
vt 0.4296875 0.890625
vt 0.4296875 0.90625
vt 0.46875 0.9609375
vt 0.5546875 0.9609375
vt 0.46875 0.96875
vt 0.46875 0.96875
vt 0.5546875 0.9609375
vt 0.5546875 0.96875
vt 0.34375 0.5234375
vt 0.4296875 0.5234375
vt 0.34375 0.53125
vt 0.34375 0.53125
vt 0.4296875 0.5234375
vt 0.4296875 0.53125
vt 0.34375 0.875
vt 0.4296875 0.875
vt 0.34375 0.890625
vt 0.34375 0.890625
vt 0.4296875 0.875
vt 0.4296875 0.890625
vn -1 0 0
vn -1 0 0
vn -1 0 0
vn -1 0 0
vn -1 0 0
vn -1 0 0
vn -1 0 0
vn -1 0 0
vn -1 0 0
vn -1 0 0
vn -1 0 0
vn -1 0 0
vn -1 0 0
vn -1 0 0
vn -1 0 0
vn -1 0 0
vn -1 0 0
vn -1 0 0
vn -1 0 0
vn -1 0 0
vn 1 0 0
vn 1 0 0
vn 1 0 0
vn 1 0 0
vn 1 0 0
vn 1 0 0
vn 1 0 0
vn 1 0 0
vn 1 0 0
vn 1 0 0
vn 1 0 0
vn 1 0 0
vn 1 0 0
vn 1 0 0
vn 1 0 0
vn 1 0 0
vn 1 0 0
vn 1 0 0
vn 1 0 0
vn 1 0 0
vn 0 0 1
vn 0 0 1
vn 0 0 1
vn 0 0 1
vn 0 0 1
vn 0 0 1
vn 0 0 1
vn 0 0 1
vn 0 0 1
vn 0 0 1
vn 0 0 1
vn 0 0 1
vn 0 0 -1
vn 0 0 -1
vn 0 0 -1
vn 0 0 -1
vn 0 0 -1
vn 0 0 -1
vn 0 0 -1
vn 0 0 -1
vn 0 0 -1
vn 0 0 -1
vn 0 0 -1
vn 0 0 -1
vn 0 -1 0
vn 0 -1 0
vn 0 -1 0
vn 0 -1 0
vn 0 -1 0
vn 0 -1 0
vn 0 -1 0
vn 0 -1 0
vn 0 -1 0
vn 0 -1 0
vn 0 -1 0
vn 0 -1 0
vn 0 1 0
vn 0 1 0
vn 0 1 0
vn 0 1 0
vn 0 1 0
vn 0 1 0
vn 0 1 0
vn 0 1 0
vn 0 1 0
vn 0 1 0
vn 0 1 0
vn 0 1 0
usemtl m_66542996-bcbe-7157-1d86-4c0797ef8370
f 1/1/1 2/2/1 3/3/1
f 4/4/2 2/5/2 1/6/2
f 5/7/3 1/8/3 6/9/3
f 5/10/4 7/11/4 4/12/4
f 5/13/5 4/14/5 1/15/5
f 8/16/6 7/17/6 5/18/6
f 9/19/7 7/20/7 8/21/7
f 10/22/8 7/23/8 9/24/8
f 11/25/9 9/26/9 8/27/9
f 12/28/10 9/29/10 11/30/10
f 13/31/11 14/32/11 15/33/11
f 16/34/12 14/35/12 13/36/12
f 17/37/13 16/38/13 13/39/13
f 17/40/14 18/41/14 16/42/14
f 17/43/15 13/44/15 19/45/15
f 20/46/16 18/47/16 17/48/16
f 21/49/17 18/50/17 20/51/17
f 22/52/18 18/53/18 21/54/18
f 23/55/19 21/56/19 20/57/19
f 24/58/20 21/59/20 23/60/20
f 25/61/21 26/62/21 27/63/21
f 27/64/22 26/65/22 28/66/22
f 29/67/23 27/68/23 30/69/23
f 28/70/24 31/71/24 30/72/24
f 27/73/25 28/74/25 30/75/25
f 30/76/26 31/77/26 32/78/26
f 32/79/27 31/80/27 33/81/27
f 33/82/28 31/83/28 34/84/28
f 32/85/29 33/86/29 35/87/29
f 35/88/30 33/89/30 36/90/30
f 37/91/31 38/92/31 39/93/31
f 39/94/32 38/95/32 40/96/32
f 39/97/33 40/98/33 41/99/33
f 40/100/34 42/101/34 41/102/34
f 43/103/35 39/104/35 41/105/35
f 41/106/36 42/107/36 44/108/36
f 44/109/37 42/110/37 45/111/37
f 45/112/38 42/113/38 46/114/38
f 44/115/39 45/116/39 47/117/39
f 47/118/40 45/119/40 48/120/40
f 49/121/41 50/122/41 51/123/41
f 52/124/42 50/125/42 49/126/42
f 53/127/43 54/128/43 55/129/43
f 56/130/44 54/131/44 53/132/44
f 57/133/45 58/134/45 59/135/45
f 60/136/46 58/137/46 57/138/46
f 61/139/47 62/140/47 63/141/47
f 64/142/48 62/143/48 61/144/48
f 65/145/49 66/146/49 67/147/49
f 68/148/50 66/149/50 65/150/50
f 69/151/51 70/152/51 71/153/51
f 72/154/52 70/155/52 69/156/52
f 73/157/53 74/158/53 75/159/53
f 75/160/54 74/161/54 76/162/54
f 77/163/55 78/164/55 79/165/55
f 79/166/56 78/167/56 80/168/56
f 81/169/57 82/170/57 83/171/57
f 83/172/58 82/173/58 84/174/58
f 85/175/59 86/176/59 87/177/59
f 87/178/60 86/179/60 88/180/60
f 89/181/61 90/182/61 91/183/61
f 91/184/62 90/185/62 92/186/62
f 93/187/63 94/188/63 95/189/63
f 95/190/64 94/191/64 96/192/64
f 97/193/65 98/194/65 99/195/65
f 100/196/66 98/197/66 97/198/66
f 101/199/67 102/200/67 103/201/67
f 104/202/68 102/203/68 101/204/68
f 105/205/69 106/206/69 107/207/69
f 108/208/70 106/209/70 105/210/70
f 109/211/71 110/212/71 111/213/71
f 112/214/72 110/215/72 109/216/72
f 113/217/73 114/218/73 115/219/73
f 116/220/74 114/221/74 113/222/74
f 117/223/75 118/224/75 119/225/75
f 120/226/76 118/227/76 117/228/76
f 121/229/77 122/230/77 123/231/77
f 123/232/78 122/233/78 124/234/78
f 125/235/79 126/236/79 127/237/79
f 127/238/80 126/239/80 128/240/80
f 129/241/81 130/242/81 131/243/81
f 131/244/82 130/245/82 132/246/82
f 133/247/83 134/248/83 135/249/83
f 135/250/84 134/251/84 136/252/84
f 137/253/85 138/254/85 139/255/85
f 139/256/86 138/257/86 140/258/86
f 141/259/87 142/260/87 143/261/87
f 143/262/88 142/263/88 144/264/88
o fence_north
v 0.125 0.28125 0.03125
v 0.125 0.25 -0.03125
v 0.125 0.25 0.03125
v 0.125 0.28125 -0.03125
v 0.125 0.375 0.0625
v 0.125 0.28125 0.0625
v 0.125 0.28125 -0.0625
v 0.125 0.375 0.03125
v 0.125 0.375 -0.03125
v 0.125 0.375 -0.0625
v 0.125 0.40625 0.03125
v 0.125 0.40625 -0.03125
v 0.125 0.6875 0.03125
v 0.125 0.65625 -0.03125
v 0.125 0.65625 0.03125
v 0.125 0.6875 -0.03125
v 0.125 0.78125 0.0625
v 0.125 0.6875 -0.0625
v 0.125 0.6875 0.0625
v 0.125 0.78125 0.03125
v 0.125 0.78125 -0.03125
v 0.125 0.78125 -0.0625
v 0.125 0.8125 0.03125
v 0.125 0.8125 -0.03125
v 0.5 0.25 0.03125
v 0.5 0.25 -0.03125
v 0.5 0.28125 0.03125
v 0.5 0.28125 -0.03125
v 0.5 0.28125 0.0625
v 0.5 0.375 0.0625
v 0.5 0.28125 -0.0625
v 0.5 0.375 0.03125
v 0.5 0.375 -0.03125
v 0.5 0.375 -0.0625
v 0.5 0.40625 0.03125
v 0.5 0.40625 -0.03125
v 0.5 0.65625 0.03125
v 0.5 0.65625 -0.03125
v 0.5 0.6875 0.03125
v 0.5 0.6875 -0.03125
v 0.5 0.78125 0.0625
v 0.5 0.6875 -0.0625
v 0.5 0.6875 0.0625
v 0.5 0.78125 0.03125
v 0.5 0.78125 -0.03125
v 0.5 0.78125 -0.0625
v 0.5 0.8125 0.03125
v 0.5 0.8125 -0.03125
v 0.5 0.28125 0.0625
v 0.125 0.375 0.0625
v 0.125 0.28125 0.0625
v 0.5 0.375 0.0625
v 0.5 0.6875 0.0625
v 0.125 0.78125 0.0625
v 0.125 0.6875 0.0625
v 0.5 0.78125 0.0625
v 0.5 0.25 0.03125
v 0.125 0.28125 0.03125
v 0.125 0.25 0.03125
v 0.5 0.28125 0.03125
v 0.5 0.375 0.03125
v 0.125 0.40625 0.03125
v 0.125 0.375 0.03125
v 0.5 0.40625 0.03125
v 0.5 0.65625 0.03125
v 0.125 0.6875 0.03125
v 0.125 0.65625 0.03125
v 0.5 0.6875 0.03125
v 0.5 0.78125 0.03125
v 0.125 0.8125 0.03125
v 0.125 0.78125 0.03125
v 0.5 0.8125 0.03125
v 0.125 0.25 -0.03125
v 0.125 0.28125 -0.03125
v 0.5 0.25 -0.03125
v 0.5 0.28125 -0.03125
v 0.125 0.375 -0.03125
v 0.125 0.40625 -0.03125
v 0.5 0.375 -0.03125
v 0.5 0.40625 -0.03125
v 0.125 0.65625 -0.03125
v 0.125 0.6875 -0.03125
v 0.5 0.65625 -0.03125
v 0.5 0.6875 -0.03125
v 0.125 0.78125 -0.03125
v 0.125 0.8125 -0.03125
v 0.5 0.78125 -0.03125
v 0.5 0.8125 -0.03125
v 0.125 0.28125 -0.0625
v 0.125 0.375 -0.0625
v 0.5 0.28125 -0.0625
v 0.5 0.375 -0.0625
v 0.125 0.6875 -0.0625
v 0.125 0.78125 -0.0625
v 0.5 0.6875 -0.0625
v 0.5 0.78125 -0.0625
v 0.125 0.25 -0.03125
v 0.5 0.25 0.03125
v 0.125 0.25 0.03125
v 0.5 0.25 -0.03125
v 0.125 0.28125 0.03125
v 0.5 0.28125 0.0625
v 0.125 0.28125 0.0625
v 0.5 0.28125 0.03125
v 0.125 0.28125 -0.0625
v 0.5 0.28125 -0.03125
v 0.125 0.28125 -0.03125
v 0.5 0.28125 -0.0625
v 0.125 0.65625 -0.03125
v 0.5 0.65625 0.03125
v 0.125 0.65625 0.03125
v 0.5 0.65625 -0.03125
v 0.125 0.6875 0.03125
v 0.5 0.6875 0.0625
v 0.125 0.6875 0.0625
v 0.5 0.6875 0.03125
v 0.125 0.6875 -0.0625
v 0.5 0.6875 -0.03125
v 0.125 0.6875 -0.03125
v 0.5 0.6875 -0.0625
v 0.125 0.375 0.0625
v 0.5 0.375 0.0625
v 0.125 0.375 0.03125
v 0.5 0.375 0.03125
v 0.125 0.375 -0.03125
v 0.5 0.375 -0.03125
v 0.125 0.375 -0.0625
v 0.5 0.375 -0.0625
v 0.125 0.40625 0.03125
v 0.5 0.40625 0.03125
v 0.125 0.40625 -0.03125
v 0.5 0.40625 -0.03125
v 0.125 0.78125 0.0625
v 0.5 0.78125 0.0625
v 0.125 0.78125 0.03125
v 0.5 0.78125 0.03125
v 0.125 0.78125 -0.03125
v 0.5 0.78125 -0.03125
v 0.125 0.78125 -0.0625
v 0.5 0.78125 -0.0625
v 0.125 0.8125 0.03125
v 0.5 0.8125 0.03125
v 0.125 0.8125 -0.03125
v 0.5 0.8125 -0.03125
vt 0.4140625 0.75
vt 0.3984375 0.7421875
vt 0.4140625 0.7421875
vt 0.3984375 0.75
vt 0.3984375 0.7421875
vt 0.4140625 0.75
vt 0.421875 0.7734375
vt 0.4140625 0.75
vt 0.421875 0.75
vt 0.421875 0.7734375
vt 0.390625 0.75
vt 0.3984375 0.75
vt 0.421875 0.7734375
vt 0.3984375 0.75
vt 0.4140625 0.75
vt 0.4140625 0.7734375
vt 0.390625 0.75
vt 0.421875 0.7734375
vt 0.3984375 0.7734375
vt 0.390625 0.75
vt 0.4140625 0.7734375
vt 0.390625 0.7734375
vt 0.390625 0.75
vt 0.3984375 0.7734375
vt 0.4140625 0.78125
vt 0.3984375 0.7734375
vt 0.4140625 0.7734375
vt 0.3984375 0.78125
vt 0.3984375 0.7734375
vt 0.4140625 0.78125
vt 0.4140625 0.703125
vt 0.3984375 0.6953125
vt 0.4140625 0.6953125
vt 0.3984375 0.703125
vt 0.3984375 0.6953125
vt 0.4140625 0.703125
vt 0.421875 0.7265625
vt 0.3984375 0.703125
vt 0.4140625 0.703125
vt 0.421875 0.7265625
vt 0.390625 0.703125
vt 0.3984375 0.703125
vt 0.421875 0.7265625
vt 0.4140625 0.703125
vt 0.421875 0.703125
vt 0.4140625 0.7265625
vt 0.390625 0.703125
vt 0.421875 0.7265625
vt 0.3984375 0.7265625
vt 0.390625 0.703125
vt 0.4140625 0.7265625
vt 0.390625 0.7265625
vt 0.390625 0.703125
vt 0.3984375 0.7265625
vt 0.4140625 0.734375
vt 0.3984375 0.7265625
vt 0.4140625 0.7265625
vt 0.3984375 0.734375
vt 0.3984375 0.7265625
vt 0.4140625 0.734375
vt 0.4140625 0.6484375
vt 0.4296875 0.6484375
vt 0.4140625 0.65625
vt 0.4140625 0.65625
vt 0.4296875 0.6484375
vt 0.4296875 0.65625
vt 0.40625 0.65625
vt 0.4140625 0.65625
vt 0.40625 0.6796875
vt 0.4296875 0.65625
vt 0.4375 0.65625
vt 0.40625 0.6796875
vt 0.4140625 0.65625
vt 0.4296875 0.65625
vt 0.40625 0.6796875
vt 0.40625 0.6796875
vt 0.4375 0.65625
vt 0.4140625 0.6796875
vt 0.4140625 0.6796875
vt 0.4375 0.65625
vt 0.4296875 0.6796875
vt 0.4296875 0.6796875
vt 0.4375 0.65625
vt 0.4375 0.6796875
vt 0.4140625 0.6796875
vt 0.4296875 0.6796875
vt 0.4140625 0.6875
vt 0.4140625 0.6875
vt 0.4296875 0.6796875
vt 0.4296875 0.6875
vt 0.3515625 0.5546875
vt 0.3671875 0.5546875
vt 0.3515625 0.5625
vt 0.3515625 0.5625
vt 0.3671875 0.5546875
vt 0.3671875 0.5625
vt 0.3515625 0.5625
vt 0.3671875 0.5625
vt 0.34375 0.5859375
vt 0.3671875 0.5625
vt 0.375 0.5625
vt 0.34375 0.5859375
vt 0.34375 0.5625
vt 0.3515625 0.5625
vt 0.34375 0.5859375
vt 0.34375 0.5859375
vt 0.375 0.5625
vt 0.3515625 0.5859375
vt 0.3515625 0.5859375
vt 0.375 0.5625
vt 0.3671875 0.5859375
vt 0.3671875 0.5859375
vt 0.375 0.5625
vt 0.375 0.5859375
vt 0.3515625 0.5859375
vt 0.3671875 0.5859375
vt 0.3515625 0.59375
vt 0.3515625 0.59375
vt 0.3671875 0.5859375
vt 0.3671875 0.59375
vt 0.21875 0.8984375
vt 0.125 0.921875
vt 0.125 0.8984375
vt 0.21875 0.921875
vt 0.125 0.921875
vt 0.21875 0.8984375
vt 0.21875 0.8671875
vt 0.125 0.890625
vt 0.125 0.8671875
vt 0.21875 0.890625
vt 0.125 0.890625
vt 0.21875 0.8671875
vt 0.53125 0.9453125
vt 0.4375 0.953125
vt 0.4375 0.9453125
vt 0.53125 0.953125
vt 0.4375 0.953125
vt 0.53125 0.9453125
vt 0.53125 0.9296875
vt 0.4375 0.9375
vt 0.4375 0.9296875
vt 0.53125 0.9375
vt 0.4375 0.9375
vt 0.53125 0.9296875
vt 0.53125 0.9140625
vt 0.4375 0.921875
vt 0.4375 0.9140625
vt 0.53125 0.921875
vt 0.4375 0.921875
vt 0.53125 0.9140625
vt 0.53125 0.8984375
vt 0.4375 0.90625
vt 0.4375 0.8984375
vt 0.53125 0.90625
vt 0.4375 0.90625
vt 0.53125 0.8984375
vt 0.53125 0.8828125
vt 0.53125 0.890625
vt 0.4375 0.8828125
vt 0.4375 0.8828125
vt 0.53125 0.890625
vt 0.4375 0.890625
vt 0.53125 0.6796875
vt 0.53125 0.6875
vt 0.4375 0.6796875
vt 0.4375 0.6796875
vt 0.53125 0.6875
vt 0.4375 0.6875
vt 0.53125 0.6640625
vt 0.53125 0.671875
vt 0.4375 0.6640625
vt 0.4375 0.6640625
vt 0.53125 0.671875
vt 0.4375 0.671875
vt 0.53125 0.6484375
vt 0.53125 0.65625
vt 0.4375 0.6484375
vt 0.4375 0.6484375
vt 0.53125 0.65625
vt 0.4375 0.65625
vt 0.21875 0.8359375
vt 0.21875 0.859375
vt 0.125 0.8359375
vt 0.125 0.8359375
vt 0.21875 0.859375
vt 0.125 0.859375
vt 0.21875 0.8046875
vt 0.21875 0.828125
vt 0.125 0.8046875
vt 0.125 0.8046875
vt 0.21875 0.828125
vt 0.125 0.828125
vt 0.34375 0.984375
vt 0.4375 1
vt 0.34375 1
vt 0.4375 0.984375
vt 0.4375 1
vt 0.34375 0.984375
vt 0.4375 0.6328125
vt 0.53125 0.640625
vt 0.4375 0.640625
vt 0.53125 0.6328125
vt 0.53125 0.640625
vt 0.4375 0.6328125
vt 0.4375 0.6171875
vt 0.53125 0.625
vt 0.4375 0.625
vt 0.53125 0.6171875
vt 0.53125 0.625
vt 0.4375 0.6171875
vt 0.34375 0.96875
vt 0.4375 0.984375
vt 0.34375 0.984375
vt 0.4375 0.96875
vt 0.4375 0.984375
vt 0.34375 0.96875
vt 0.4375 0.6015625
vt 0.53125 0.609375
vt 0.4375 0.609375
vt 0.53125 0.6015625
vt 0.53125 0.609375
vt 0.4375 0.6015625
vt 0.4375 0.5859375
vt 0.53125 0.59375
vt 0.4375 0.59375
vt 0.53125 0.5859375
vt 0.53125 0.59375
vt 0.4375 0.5859375
vt 0.4375 0.5703125
vt 0.53125 0.5703125
vt 0.4375 0.578125
vt 0.4375 0.578125
vt 0.53125 0.5703125
vt 0.53125 0.578125
vt 0.4375 0.5546875
vt 0.53125 0.5546875
vt 0.4375 0.5625
vt 0.4375 0.5625
vt 0.53125 0.5546875
vt 0.53125 0.5625
vt 0.34375 0.953125
vt 0.4375 0.953125
vt 0.34375 0.96875
vt 0.34375 0.96875
vt 0.4375 0.953125
vt 0.4375 0.96875
vt 0.453125 0.8671875
vt 0.546875 0.8671875
vt 0.453125 0.875
vt 0.453125 0.875
vt 0.546875 0.8671875
vt 0.546875 0.875
vt 0.453125 0.8515625
vt 0.546875 0.8515625
vt 0.453125 0.859375
vt 0.453125 0.859375
vt 0.546875 0.8515625
vt 0.546875 0.859375
vt 0.34375 0.9375
vt 0.4375 0.9375
vt 0.34375 0.953125
vt 0.34375 0.953125
vt 0.4375 0.9375
vt 0.4375 0.953125
vn -1 0 0
vn -1 0 0
vn -1 0 0
vn -1 0 0
vn -1 0 0
vn -1 0 0
vn -1 0 0
vn -1 0 0
vn -1 0 0
vn -1 0 0
vn -1 0 0
vn -1 0 0
vn -1 0 0
vn -1 0 0
vn -1 0 0
vn -1 0 0
vn -1 0 0
vn -1 0 0
vn -1 0 0
vn -1 0 0
vn 1 0 0
vn 1 0 0
vn 1 0 0
vn 1 0 0
vn 1 0 0
vn 1 0 0
vn 1 0 0
vn 1 0 0
vn 1 0 0
vn 1 0 0
vn 1 0 0
vn 1 0 0
vn 1 0 0
vn 1 0 0
vn 1 0 0
vn 1 0 0
vn 1 0 0
vn 1 0 0
vn 1 0 0
vn 1 0 0
vn 0 0 1
vn 0 0 1
vn 0 0 1
vn 0 0 1
vn 0 0 1
vn 0 0 1
vn 0 0 1
vn 0 0 1
vn 0 0 1
vn 0 0 1
vn 0 0 1
vn 0 0 1
vn 0 0 -1
vn 0 0 -1
vn 0 0 -1
vn 0 0 -1
vn 0 0 -1
vn 0 0 -1
vn 0 0 -1
vn 0 0 -1
vn 0 0 -1
vn 0 0 -1
vn 0 0 -1
vn 0 0 -1
vn 0 -1 0
vn 0 -1 0
vn 0 -1 0
vn 0 -1 0
vn 0 -1 0
vn 0 -1 0
vn 0 -1 0
vn 0 -1 0
vn 0 -1 0
vn 0 -1 0
vn 0 -1 0
vn 0 -1 0
vn 0 1 0
vn 0 1 0
vn 0 1 0
vn 0 1 0
vn 0 1 0
vn 0 1 0
vn 0 1 0
vn 0 1 0
vn 0 1 0
vn 0 1 0
vn 0 1 0
vn 0 1 0
usemtl m_66542996-bcbe-7157-1d86-4c0797ef8370
f 145/265/89 146/266/89 147/267/89
f 148/268/90 146/269/90 145/270/90
f 149/271/91 145/272/91 150/273/91
f 149/274/92 151/275/92 148/276/92
f 149/277/93 148/278/93 145/279/93
f 152/280/94 151/281/94 149/282/94
f 153/283/95 151/284/95 152/285/95
f 154/286/96 151/287/96 153/288/96
f 155/289/97 153/290/97 152/291/97
f 156/292/98 153/293/98 155/294/98
f 157/295/99 158/296/99 159/297/99
f 160/298/100 158/299/100 157/300/100
f 161/301/101 160/302/101 157/303/101
f 161/304/102 162/305/102 160/306/102
f 161/307/103 157/308/103 163/309/103
f 164/310/104 162/311/104 161/312/104
f 165/313/105 162/314/105 164/315/105
f 166/316/106 162/317/106 165/318/106
f 167/319/107 165/320/107 164/321/107
f 168/322/108 165/323/108 167/324/108
f 169/325/109 170/326/109 171/327/109
f 171/328/110 170/329/110 172/330/110
f 173/331/111 171/332/111 174/333/111
f 172/334/112 175/335/112 174/336/112
f 171/337/113 172/338/113 174/339/113
f 174/340/114 175/341/114 176/342/114
f 176/343/115 175/344/115 177/345/115
f 177/346/116 175/347/116 178/348/116
f 176/349/117 177/350/117 179/351/117
f 179/352/118 177/353/118 180/354/118
f 181/355/119 182/356/119 183/357/119
f 183/358/120 182/359/120 184/360/120
f 183/361/121 184/362/121 185/363/121
f 184/364/122 186/365/122 185/366/122
f 187/367/123 183/368/123 185/369/123
f 185/370/124 186/371/124 188/372/124
f 188/373/125 186/374/125 189/375/125
f 189/376/126 186/377/126 190/378/126
f 188/379/127 189/380/127 191/381/127
f 191/382/128 189/383/128 192/384/128
f 193/385/129 194/386/129 195/387/129
f 196/388/130 194/389/130 193/390/130
f 197/391/131 198/392/131 199/393/131
f 200/394/132 198/395/132 197/396/132
f 201/397/133 202/398/133 203/399/133
f 204/400/134 202/401/134 201/402/134
f 205/403/135 206/404/135 207/405/135
f 208/406/136 206/407/136 205/408/136
f 209/409/137 210/410/137 211/411/137
f 212/412/138 210/413/138 209/414/138
f 213/415/139 214/416/139 215/417/139
f 216/418/140 214/419/140 213/420/140
f 217/421/141 218/422/141 219/423/141
f 219/424/142 218/425/142 220/426/142
f 221/427/143 222/428/143 223/429/143
f 223/430/144 222/431/144 224/432/144
f 225/433/145 226/434/145 227/435/145
f 227/436/146 226/437/146 228/438/146
f 229/439/147 230/440/147 231/441/147
f 231/442/148 230/443/148 232/444/148
f 233/445/149 234/446/149 235/447/149
f 235/448/150 234/449/150 236/450/150
f 237/451/151 238/452/151 239/453/151
f 239/454/152 238/455/152 240/456/152
f 241/457/153 242/458/153 243/459/153
f 244/460/154 242/461/154 241/462/154
f 245/463/155 246/464/155 247/465/155
f 248/466/156 246/467/156 245/468/156
f 249/469/157 250/470/157 251/471/157
f 252/472/158 250/473/158 249/474/158
f 253/475/159 254/476/159 255/477/159
f 256/478/160 254/479/160 253/480/160
f 257/481/161 258/482/161 259/483/161
f 260/484/162 258/485/162 257/486/162
f 261/487/163 262/488/163 263/489/163
f 264/490/164 262/491/164 261/492/164
f 265/493/165 266/494/165 267/495/165
f 267/496/166 266/497/166 268/498/166
f 269/499/167 270/500/167 271/501/167
f 271/502/168 270/503/168 272/504/168
f 273/505/169 274/506/169 275/507/169
f 275/508/170 274/509/170 276/510/170
f 277/511/171 278/512/171 279/513/171
f 279/514/172 278/515/172 280/516/172
f 281/517/173 282/518/173 283/519/173
f 283/520/174 282/521/174 284/522/174
f 285/523/175 286/524/175 287/525/175
f 287/526/176 286/527/176 288/528/176
o fence_west
v -0.0625 0.375 -0.15625
v -0.0625 0.28125 -0.5
v -0.0625 0.28125 -0.15625
v -0.0625 0.375 -0.5
v -0.0625 0.78125 -0.15625
v -0.0625 0.6875 -0.5
v -0.0625 0.6875 -0.15625
v -0.0625 0.78125 -0.5
v -0.03125 0.28125 -0.15625
v -0.03125 0.25 -0.5
v -0.03125 0.25 -0.15625
v -0.03125 0.28125 -0.5
v -0.03125 0.40625 -0.15625
v -0.03125 0.375 -0.5
v -0.03125 0.375 -0.15625
v -0.03125 0.40625 -0.5
v -0.03125 0.6875 -0.15625
v -0.03125 0.65625 -0.5
v -0.03125 0.65625 -0.15625
v -0.03125 0.6875 -0.5
v -0.03125 0.8125 -0.15625
v -0.03125 0.78125 -0.5
v -0.03125 0.78125 -0.15625
v -0.03125 0.8125 -0.5
v 0.03125 0.25 -0.15625
v 0.03125 0.25 -0.5
v 0.03125 0.28125 -0.15625
v 0.03125 0.28125 -0.5
v 0.03125 0.375 -0.15625
v 0.03125 0.375 -0.5
v 0.03125 0.40625 -0.15625
v 0.03125 0.40625 -0.5
v 0.03125 0.65625 -0.15625
v 0.03125 0.65625 -0.5
v 0.03125 0.6875 -0.15625
v 0.03125 0.6875 -0.5
v 0.03125 0.78125 -0.15625
v 0.03125 0.78125 -0.5
v 0.03125 0.8125 -0.15625
v 0.03125 0.8125 -0.5
v 0.0625 0.28125 -0.15625
v 0.0625 0.28125 -0.5
v 0.0625 0.375 -0.15625
v 0.0625 0.375 -0.5
v 0.0625 0.6875 -0.15625
v 0.0625 0.6875 -0.5
v 0.0625 0.78125 -0.15625
v 0.0625 0.78125 -0.5
v -0.03125 0.28125 -0.15625
v -0.0625 0.375 -0.15625
v -0.0625 0.28125 -0.15625
v -0.03125 0.375 -0.15625
v -0.03125 0.6875 -0.15625
v -0.0625 0.78125 -0.15625
v -0.0625 0.6875 -0.15625
v -0.03125 0.78125 -0.15625
v 0.03125 0.25 -0.15625
v -0.03125 0.40625 -0.15625
v -0.03125 0.25 -0.15625
v 0.03125 0.28125 -0.15625
v 0.03125 0.375 -0.15625
v 0.03125 0.40625 -0.15625
v 0.03125 0.65625 -0.15625
v -0.03125 0.8125 -0.15625
v -0.03125 0.65625 -0.15625
v 0.03125 0.6875 -0.15625
v 0.03125 0.78125 -0.15625
v 0.03125 0.8125 -0.15625
v 0.0625 0.28125 -0.15625
v 0.0625 0.375 -0.15625
v 0.0625 0.6875 -0.15625
v 0.0625 0.78125 -0.15625
v -0.0625 0.28125 -0.5
v -0.0625 0.375 -0.5
v -0.03125 0.28125 -0.5
v -0.03125 0.375 -0.5
v -0.0625 0.6875 -0.5
v -0.0625 0.78125 -0.5
v -0.03125 0.6875 -0.5
v -0.03125 0.78125 -0.5
v -0.03125 0.40625 -0.5
v 0.03125 0.25 -0.5
v -0.03125 0.25 -0.5
v 0.03125 0.28125 -0.5
v 0.03125 0.375 -0.5
v 0.03125 0.40625 -0.5
v -0.03125 0.8125 -0.5
v 0.03125 0.65625 -0.5
v -0.03125 0.65625 -0.5
v 0.03125 0.6875 -0.5
v 0.03125 0.78125 -0.5
v 0.03125 0.8125 -0.5
v 0.0625 0.28125 -0.5
v 0.0625 0.375 -0.5
v 0.0625 0.6875 -0.5
v 0.0625 0.78125 -0.5
v -0.03125 0.25 -0.5
v 0.03125 0.25 -0.15625
v -0.03125 0.25 -0.15625
v 0.03125 0.25 -0.5
v -0.0625 0.28125 -0.5
v -0.03125 0.28125 -0.15625
v -0.0625 0.28125 -0.15625
v -0.03125 0.28125 -0.5
v 0.03125 0.28125 -0.5
v 0.0625 0.28125 -0.15625
v 0.03125 0.28125 -0.15625
v 0.0625 0.28125 -0.5
v -0.03125 0.65625 -0.5
v 0.03125 0.65625 -0.15625
v -0.03125 0.65625 -0.15625
v 0.03125 0.65625 -0.5
v -0.0625 0.6875 -0.5
v -0.03125 0.6875 -0.15625
v -0.0625 0.6875 -0.15625
v -0.03125 0.6875 -0.5
v 0.03125 0.6875 -0.5
v 0.0625 0.6875 -0.15625
v 0.03125 0.6875 -0.15625
v 0.0625 0.6875 -0.5
v -0.0625 0.375 -0.15625
v -0.03125 0.375 -0.15625
v -0.0625 0.375 -0.5
v -0.03125 0.375 -0.5
v 0.03125 0.375 -0.15625
v 0.0625 0.375 -0.15625
v 0.03125 0.375 -0.5
v 0.0625 0.375 -0.5
v -0.03125 0.40625 -0.15625
v 0.03125 0.40625 -0.15625
v -0.03125 0.40625 -0.5
v 0.03125 0.40625 -0.5
v -0.0625 0.78125 -0.15625
v -0.03125 0.78125 -0.15625
v -0.0625 0.78125 -0.5
v -0.03125 0.78125 -0.5
v 0.03125 0.78125 -0.15625
v 0.0625 0.78125 -0.15625
v 0.03125 0.78125 -0.5
v 0.0625 0.78125 -0.5
v -0.03125 0.8125 -0.15625
v 0.03125 0.8125 -0.15625
v -0.03125 0.8125 -0.5
v 0.03125 0.8125 -0.5
vt 0.3046875 0.859375
vt 0.21875 0.8359375
vt 0.3046875 0.8359375
vt 0.21875 0.859375
vt 0.21875 0.8359375
vt 0.3046875 0.859375
vt 0.3046875 0.828125
vt 0.21875 0.8046875
vt 0.3046875 0.8046875
vt 0.21875 0.828125
vt 0.21875 0.8046875
vt 0.3046875 0.828125
vt 0.5234375 0.53125
vt 0.4375 0.5234375
vt 0.5234375 0.5234375
vt 0.4375 0.53125
vt 0.4375 0.5234375
vt 0.5234375 0.53125
vt 0.4296875 0.515625
vt 0.34375 0.5078125
vt 0.4296875 0.5078125
vt 0.34375 0.515625
vt 0.34375 0.5078125
vt 0.4296875 0.515625
vt 0.5234375 0.515625
vt 0.4375 0.5078125
vt 0.5234375 0.5078125
vt 0.4375 0.515625
vt 0.4375 0.5078125
vt 0.5234375 0.515625
vt 0.1796875 0.5
vt 0.09375 0.4921875
vt 0.1796875 0.4921875
vt 0.09375 0.5
vt 0.09375 0.4921875
vt 0.1796875 0.5
vt 0.1875 0.4921875
vt 0.2734375 0.4921875
vt 0.1875 0.5
vt 0.1875 0.5
vt 0.2734375 0.4921875
vt 0.2734375 0.5
vt 0.28125 0.4921875
vt 0.3671875 0.4921875
vt 0.28125 0.5
vt 0.28125 0.5
vt 0.3671875 0.4921875
vt 0.3671875 0.5
vt 0.375 0.4921875
vt 0.4609375 0.4921875
vt 0.375 0.5
vt 0.375 0.5
vt 0.4609375 0.4921875
vt 0.4609375 0.5
vt 0.46875 0.4921875
vt 0.5546875 0.4921875
vt 0.46875 0.5
vt 0.46875 0.5
vt 0.5546875 0.4921875
vt 0.5546875 0.5
vt 0.21875 0.7734375
vt 0.3046875 0.7734375
vt 0.21875 0.796875
vt 0.21875 0.796875
vt 0.3046875 0.7734375
vt 0.3046875 0.796875
vt 0 0.7421875
vt 0.0859375 0.7421875
vt 0 0.765625
vt 0 0.765625
vt 0.0859375 0.7421875
vt 0.0859375 0.765625
vt 0.4140625 0.609375
vt 0.40625 0.6328125
vt 0.40625 0.609375
vt 0.4140625 0.6328125
vt 0.40625 0.6328125
vt 0.4140625 0.609375
vt 0.3828125 0.5625
vt 0.375 0.5859375
vt 0.375 0.5625
vt 0.3828125 0.5859375
vt 0.375 0.5859375
vt 0.3828125 0.5625
vt 0.4296875 0.6015625
vt 0.4140625 0.640625
vt 0.4140625 0.6328125
vt 0.4296875 0.6015625
vt 0.4140625 0.609375
vt 0.4140625 0.6015625
vt 0.4296875 0.6015625
vt 0.4140625 0.6328125
vt 0.4140625 0.609375
vt 0.4296875 0.609375
vt 0.4140625 0.640625
vt 0.4296875 0.6015625
vt 0.4296875 0.6328125
vt 0.4140625 0.640625
vt 0.4296875 0.609375
vt 0.4296875 0.640625
vt 0.4140625 0.640625
vt 0.4296875 0.6328125
vt 0.3984375 0.5546875
vt 0.3828125 0.59375
vt 0.3828125 0.5859375
vt 0.3984375 0.5546875
vt 0.3828125 0.5859375
vt 0.3828125 0.5625
vt 0.3984375 0.5546875
vt 0.3828125 0.5625
vt 0.3828125 0.5546875
vt 0.3984375 0.5625
vt 0.3828125 0.59375
vt 0.3984375 0.5546875
vt 0.3984375 0.5859375
vt 0.3828125 0.59375
vt 0.3984375 0.5625
vt 0.3984375 0.59375
vt 0.3828125 0.59375
vt 0.3984375 0.5859375
vt 0.4375 0.609375
vt 0.4296875 0.6328125
vt 0.4296875 0.609375
vt 0.4375 0.6328125
vt 0.4296875 0.6328125
vt 0.4375 0.609375
vt 0.40625 0.5625
vt 0.3984375 0.5859375
vt 0.3984375 0.5625
vt 0.40625 0.5859375
vt 0.3984375 0.5859375
vt 0.40625 0.5625
vt 0.4375 0.5625
vt 0.4375 0.5859375
vt 0.4296875 0.5625
vt 0.4296875 0.5625
vt 0.4375 0.5859375
vt 0.4296875 0.5859375
vt 0.453125 0.84375
vt 0.453125 0.8671875
vt 0.4453125 0.84375
vt 0.4453125 0.84375
vt 0.453125 0.8671875
vt 0.4453125 0.8671875
vt 0.4296875 0.5859375
vt 0.4296875 0.59375
vt 0.4140625 0.5546875
vt 0.4296875 0.5546875
vt 0.4296875 0.5625
vt 0.4140625 0.5546875
vt 0.4296875 0.5625
vt 0.4296875 0.5859375
vt 0.4140625 0.5546875
vt 0.4140625 0.5546875
vt 0.4296875 0.59375
vt 0.4140625 0.5625
vt 0.4140625 0.5625
vt 0.4296875 0.59375
vt 0.4140625 0.5859375
vt 0.4140625 0.5859375
vt 0.4296875 0.59375
vt 0.4140625 0.59375
vt 0.4453125 0.8671875
vt 0.4453125 0.875
vt 0.4296875 0.8359375
vt 0.4453125 0.84375
vt 0.4453125 0.8671875
vt 0.4296875 0.8359375
vt 0.4453125 0.8359375
vt 0.4453125 0.84375
vt 0.4296875 0.8359375
vt 0.4296875 0.8359375
vt 0.4453125 0.875
vt 0.4296875 0.84375
vt 0.4296875 0.84375
vt 0.4453125 0.875
vt 0.4296875 0.8671875
vt 0.4296875 0.8671875
vt 0.4453125 0.875
vt 0.4296875 0.875
vt 0.4140625 0.5625
vt 0.4140625 0.5859375
vt 0.40625 0.5625
vt 0.40625 0.5625
vt 0.4140625 0.5859375
vt 0.40625 0.5859375
vt 0.4296875 0.84375
vt 0.4296875 0.8671875
vt 0.421875 0.84375
vt 0.421875 0.84375
vt 0.4296875 0.8671875
vt 0.421875 0.8671875
vt 0.34375 0.7890625
vt 0.359375 0.875
vt 0.34375 0.875
vt 0.359375 0.7890625
vt 0.359375 0.875
vt 0.34375 0.7890625
vt 0.09375 0.3984375
vt 0.1015625 0.484375
vt 0.09375 0.484375
vt 0.1015625 0.3984375
vt 0.1015625 0.484375
vt 0.09375 0.3984375
vt 0.109375 0.3984375
vt 0.1171875 0.484375
vt 0.109375 0.484375
vt 0.1171875 0.3984375
vt 0.1171875 0.484375
vt 0.109375 0.3984375
vt 0.34375 0.6953125
vt 0.359375 0.78125
vt 0.34375 0.78125
vt 0.359375 0.6953125
vt 0.359375 0.78125
vt 0.34375 0.6953125
vt 0.125 0.3984375
vt 0.1328125 0.484375
vt 0.125 0.484375
vt 0.1328125 0.3984375
vt 0.1328125 0.484375
vt 0.125 0.3984375
vt 0.140625 0.3984375
vt 0.1484375 0.484375
vt 0.140625 0.484375
vt 0.1484375 0.3984375
vt 0.1484375 0.484375
vt 0.140625 0.3984375
vt 0.15625 0.3984375
vt 0.1640625 0.3984375
vt 0.15625 0.484375
vt 0.15625 0.484375
vt 0.1640625 0.3984375
vt 0.1640625 0.484375
vt 0.171875 0.3984375
vt 0.1796875 0.3984375
vt 0.171875 0.484375
vt 0.171875 0.484375
vt 0.1796875 0.3984375
vt 0.1796875 0.484375
vt 0.34375 0.6015625
vt 0.359375 0.6015625
vt 0.34375 0.6875
vt 0.34375 0.6875
vt 0.359375 0.6015625
vt 0.359375 0.6875
vt 0.1875 0.3984375
vt 0.1953125 0.3984375
vt 0.1875 0.484375
vt 0.1875 0.484375
vt 0.1953125 0.3984375
vt 0.1953125 0.484375
vt 0.203125 0.3984375
vt 0.2109375 0.3984375
vt 0.203125 0.484375
vt 0.203125 0.484375
vt 0.2109375 0.3984375
vt 0.2109375 0.484375
vt 0.359375 0.7890625
vt 0.375 0.7890625
vt 0.359375 0.875
vt 0.359375 0.875
vt 0.375 0.7890625
vt 0.375 0.875
vn -1 0 0
vn -1 0 0
vn -1 0 0
vn -1 0 0
vn -1 0 0
vn -1 0 0
vn -1 0 0
vn -1 0 0
vn -1 0 0
vn -1 0 0
vn -1 0 0
vn -1 0 0
vn 1 0 0
vn 1 0 0
vn 1 0 0
vn 1 0 0
vn 1 0 0
vn 1 0 0
vn 1 0 0
vn 1 0 0
vn 1 0 0
vn 1 0 0
vn 1 0 0
vn 1 0 0
vn 0 0 1
vn 0 0 1
vn 0 0 1
vn 0 0 1
vn 0 0 1
vn 0 0 1
vn 0 0 1
vn 0 0 1
vn 0 0 1
vn 0 0 1
vn 0 0 1
vn 0 0 1
vn 0 0 1
vn 0 0 1
vn 0 0 1
vn 0 0 1
vn 0 0 1
vn 0 0 1
vn 0 0 1
vn 0 0 1
vn 0 0 -1
vn 0 0 -1
vn 0 0 -1
vn 0 0 -1
vn 0 0 -1
vn 0 0 -1
vn 0 0 -1
vn 0 0 -1
vn 0 0 -1
vn 0 0 -1
vn 0 0 -1
vn 0 0 -1
vn 0 0 -1
vn 0 0 -1
vn 0 0 -1
vn 0 0 -1
vn 0 0 -1
vn 0 0 -1
vn 0 0 -1
vn 0 0 -1
vn 0 -1 0
vn 0 -1 0
vn 0 -1 0
vn 0 -1 0
vn 0 -1 0
vn 0 -1 0
vn 0 -1 0
vn 0 -1 0
vn 0 -1 0
vn 0 -1 0
vn 0 -1 0
vn 0 -1 0
vn 0 1 0
vn 0 1 0
vn 0 1 0
vn 0 1 0
vn 0 1 0
vn 0 1 0
vn 0 1 0
vn 0 1 0
vn 0 1 0
vn 0 1 0
vn 0 1 0
vn 0 1 0
usemtl m_66542996-bcbe-7157-1d86-4c0797ef8370
f 289/529/177 290/530/177 291/531/177
f 292/532/178 290/533/178 289/534/178
f 293/535/179 294/536/179 295/537/179
f 296/538/180 294/539/180 293/540/180
f 297/541/181 298/542/181 299/543/181
f 300/544/182 298/545/182 297/546/182
f 301/547/183 302/548/183 303/549/183
f 304/550/184 302/551/184 301/552/184
f 305/553/185 306/554/185 307/555/185
f 308/556/186 306/557/186 305/558/186
f 309/559/187 310/560/187 311/561/187
f 312/562/188 310/563/188 309/564/188
f 313/565/189 314/566/189 315/567/189
f 315/568/190 314/569/190 316/570/190
f 317/571/191 318/572/191 319/573/191
f 319/574/192 318/575/192 320/576/192
f 321/577/193 322/578/193 323/579/193
f 323/580/194 322/581/194 324/582/194
f 325/583/195 326/584/195 327/585/195
f 327/586/196 326/587/196 328/588/196
f 329/589/197 330/590/197 331/591/197
f 331/592/198 330/593/198 332/594/198
f 333/595/199 334/596/199 335/597/199
f 335/598/200 334/599/200 336/600/200
f 337/601/201 338/602/201 339/603/201
f 340/604/202 338/605/202 337/606/202
f 341/607/203 342/608/203 343/609/203
f 344/610/204 342/611/204 341/612/204
f 345/613/205 346/614/205 340/615/205
f 345/616/206 337/617/206 347/618/206
f 345/619/207 340/620/207 337/621/207
f 348/622/208 346/623/208 345/624/208
f 349/625/209 346/626/209 348/627/209
f 350/628/210 346/629/210 349/630/210
f 351/631/211 352/632/211 344/633/211
f 351/634/212 344/635/212 341/636/212
f 351/637/213 341/638/213 353/639/213
f 354/640/214 352/641/214 351/642/214
f 355/643/215 352/644/215 354/645/215
f 356/646/216 352/647/216 355/648/216
f 357/649/217 349/650/217 348/651/217
f 358/652/218 349/653/218 357/654/218
f 359/655/219 355/656/219 354/657/219
f 360/658/220 355/659/220 359/660/220
f 361/661/221 362/662/221 363/663/221
f 363/664/222 362/665/222 364/666/222
f 365/667/223 366/668/223 367/669/223
f 367/670/224 366/671/224 368/672/224
f 364/673/225 369/674/225 370/675/225
f 371/676/226 363/677/226 370/678/226
f 363/679/227 364/680/227 370/681/227
f 370/682/228 369/683/228 372/684/228
f 372/685/229 369/686/229 373/687/229
f 373/688/230 369/689/230 374/690/230
f 368/691/231 375/692/231 376/693/231
f 367/694/232 368/695/232 376/696/232
f 377/697/233 367/698/233 376/699/233
f 376/700/234 375/701/234 378/702/234
f 378/703/235 375/704/235 379/705/235
f 379/706/236 375/707/236 380/708/236
f 372/709/237 373/710/237 381/711/237
f 381/712/238 373/713/238 382/714/238
f 378/715/239 379/716/239 383/717/239
f 383/718/240 379/719/240 384/720/240
f 385/721/241 386/722/241 387/723/241
f 388/724/242 386/725/242 385/726/242
f 389/727/243 390/728/243 391/729/243
f 392/730/244 390/731/244 389/732/244
f 393/733/245 394/734/245 395/735/245
f 396/736/246 394/737/246 393/738/246
f 397/739/247 398/740/247 399/741/247
f 400/742/248 398/743/248 397/744/248
f 401/745/249 402/746/249 403/747/249
f 404/748/250 402/749/250 401/750/250
f 405/751/251 406/752/251 407/753/251
f 408/754/252 406/755/252 405/756/252
f 409/757/253 410/758/253 411/759/253
f 411/760/254 410/761/254 412/762/254
f 413/763/255 414/764/255 415/765/255
f 415/766/256 414/767/256 416/768/256
f 417/769/257 418/770/257 419/771/257
f 419/772/258 418/773/258 420/774/258
f 421/775/259 422/776/259 423/777/259
f 423/778/260 422/779/260 424/780/260
f 425/781/261 426/782/261 427/783/261
f 427/784/262 426/785/262 428/786/262
f 429/787/263 430/788/263 431/789/263
f 431/790/264 430/791/264 432/792/264
o fence_east
v -0.0625 0.375 0.5
v -0.0625 0.28125 0.15625
v -0.0625 0.28125 0.5
v -0.0625 0.375 0.15625
v -0.0625 0.78125 0.5
v -0.0625 0.6875 0.15625
v -0.0625 0.6875 0.5
v -0.0625 0.78125 0.15625
v -0.03125 0.28125 0.5
v -0.03125 0.25 0.15625
v -0.03125 0.25 0.5
v -0.03125 0.28125 0.15625
v -0.03125 0.40625 0.5
v -0.03125 0.375 0.15625
v -0.03125 0.375 0.5
v -0.03125 0.40625 0.15625
v -0.03125 0.6875 0.5
v -0.03125 0.65625 0.15625
v -0.03125 0.65625 0.5
v -0.03125 0.6875 0.15625
v -0.03125 0.8125 0.5
v -0.03125 0.78125 0.15625
v -0.03125 0.78125 0.5
v -0.03125 0.8125 0.15625
v 0.03125 0.25 0.5
v 0.03125 0.25 0.15625
v 0.03125 0.28125 0.5
v 0.03125 0.28125 0.15625
v 0.03125 0.375 0.5
v 0.03125 0.375 0.15625
v 0.03125 0.40625 0.5
v 0.03125 0.40625 0.15625
v 0.03125 0.65625 0.5
v 0.03125 0.65625 0.15625
v 0.03125 0.6875 0.5
v 0.03125 0.6875 0.15625
v 0.03125 0.78125 0.5
v 0.03125 0.78125 0.15625
v 0.03125 0.8125 0.5
v 0.03125 0.8125 0.15625
v 0.0625 0.28125 0.5
v 0.0625 0.28125 0.15625
v 0.0625 0.375 0.5
v 0.0625 0.375 0.15625
v 0.0625 0.6875 0.5
v 0.0625 0.6875 0.15625
v 0.0625 0.78125 0.5
v 0.0625 0.78125 0.15625
v -0.03125 0.28125 0.5
v -0.0625 0.375 0.5
v -0.0625 0.28125 0.5
v -0.03125 0.375 0.5
v -0.03125 0.6875 0.5
v -0.0625 0.78125 0.5
v -0.0625 0.6875 0.5
v -0.03125 0.78125 0.5
v 0.03125 0.25 0.5
v -0.03125 0.40625 0.5
v -0.03125 0.25 0.5
v 0.03125 0.28125 0.5
v 0.03125 0.375 0.5
v 0.03125 0.40625 0.5
v 0.03125 0.65625 0.5
v -0.03125 0.8125 0.5
v -0.03125 0.65625 0.5
v 0.03125 0.6875 0.5
v 0.03125 0.78125 0.5
v 0.03125 0.8125 0.5
v 0.0625 0.28125 0.5
v 0.0625 0.375 0.5
v 0.0625 0.6875 0.5
v 0.0625 0.78125 0.5
v -0.0625 0.28125 0.15625
v -0.0625 0.375 0.15625
v -0.03125 0.28125 0.15625
v -0.03125 0.375 0.15625
v -0.0625 0.6875 0.15625
v -0.0625 0.78125 0.15625
v -0.03125 0.6875 0.15625
v -0.03125 0.78125 0.15625
v -0.03125 0.40625 0.15625
v 0.03125 0.25 0.15625
v -0.03125 0.25 0.15625
v 0.03125 0.28125 0.15625
v 0.03125 0.375 0.15625
v 0.03125 0.40625 0.15625
v -0.03125 0.8125 0.15625
v 0.03125 0.65625 0.15625
v -0.03125 0.65625 0.15625
v 0.03125 0.6875 0.15625
v 0.03125 0.78125 0.15625
v 0.03125 0.8125 0.15625
v 0.0625 0.28125 0.15625
v 0.0625 0.375 0.15625
v 0.0625 0.6875 0.15625
v 0.0625 0.78125 0.15625
v -0.03125 0.25 0.15625
v 0.03125 0.25 0.5
v -0.03125 0.25 0.5
v 0.03125 0.25 0.15625
v -0.0625 0.28125 0.15625
v -0.03125 0.28125 0.5
v -0.0625 0.28125 0.5
v -0.03125 0.28125 0.15625
v 0.03125 0.28125 0.15625
v 0.0625 0.28125 0.5
v 0.03125 0.28125 0.5
v 0.0625 0.28125 0.15625
v -0.03125 0.65625 0.15625
v 0.03125 0.65625 0.5
v -0.03125 0.65625 0.5
v 0.03125 0.65625 0.15625
v -0.0625 0.6875 0.15625
v -0.03125 0.6875 0.5
v -0.0625 0.6875 0.5
v -0.03125 0.6875 0.15625
v 0.03125 0.6875 0.15625
v 0.0625 0.6875 0.5
v 0.03125 0.6875 0.5
v 0.0625 0.6875 0.15625
v -0.0625 0.375 0.5
v -0.03125 0.375 0.5
v -0.0625 0.375 0.15625
v -0.03125 0.375 0.15625
v 0.03125 0.375 0.5
v 0.0625 0.375 0.5
v 0.03125 0.375 0.15625
v 0.0625 0.375 0.15625
v -0.03125 0.40625 0.5
v 0.03125 0.40625 0.5
v -0.03125 0.40625 0.15625
v 0.03125 0.40625 0.15625
v -0.0625 0.78125 0.5
v -0.03125 0.78125 0.5
v -0.0625 0.78125 0.15625
v -0.03125 0.78125 0.15625
v 0.03125 0.78125 0.5
v 0.0625 0.78125 0.5
v 0.03125 0.78125 0.15625
v 0.0625 0.78125 0.15625
v -0.03125 0.8125 0.5
v 0.03125 0.8125 0.5
v -0.03125 0.8125 0.15625
v 0.03125 0.8125 0.15625
vt 0.1796875 0.765625
vt 0.09375 0.7421875
vt 0.1796875 0.7421875
vt 0.09375 0.765625
vt 0.09375 0.7421875
vt 0.1796875 0.765625
vt 0.2734375 0.765625
vt 0.1875 0.7421875
vt 0.2734375 0.7421875
vt 0.1875 0.765625
vt 0.1875 0.7421875
vt 0.2734375 0.765625
vt 0.3046875 0.484375
vt 0.21875 0.4765625
vt 0.3046875 0.4765625
vt 0.21875 0.484375
vt 0.21875 0.4765625
vt 0.3046875 0.484375
vt 0.3984375 0.484375
vt 0.3125 0.4765625
vt 0.3984375 0.4765625
vt 0.3125 0.484375
vt 0.3125 0.4765625
vt 0.3984375 0.484375
vt 0.4921875 0.484375
vt 0.40625 0.4765625
vt 0.4921875 0.4765625
vt 0.40625 0.484375
vt 0.40625 0.4765625
vt 0.4921875 0.484375
vt 0.5859375 0.484375
vt 0.5 0.4765625
vt 0.5859375 0.4765625
vt 0.5 0.484375
vt 0.5 0.4765625
vt 0.5859375 0.484375
vt 0 0.4609375
vt 0.0859375 0.4609375
vt 0 0.46875
vt 0 0.46875
vt 0.0859375 0.4609375
vt 0.0859375 0.46875
vt 0.53125 0.9453125
vt 0.6171875 0.9453125
vt 0.53125 0.953125
vt 0.53125 0.953125
vt 0.6171875 0.9453125
vt 0.6171875 0.953125
vt 0.53125 0.9296875
vt 0.6171875 0.9296875
vt 0.53125 0.9375
vt 0.53125 0.9375
vt 0.6171875 0.9296875
vt 0.6171875 0.9375
vt 0.53125 0.9140625
vt 0.6171875 0.9140625
vt 0.53125 0.921875
vt 0.53125 0.921875
vt 0.6171875 0.9140625
vt 0.6171875 0.921875
vt 0.25 0.9765625
vt 0.3359375 0.9765625
vt 0.25 1
vt 0.25 1
vt 0.3359375 0.9765625
vt 0.3359375 1
vt 0 0.7109375
vt 0.0859375 0.7109375
vt 0 0.734375
vt 0 0.734375
vt 0.0859375 0.7109375
vt 0.0859375 0.734375
vt 0.4296875 0.796875
vt 0.421875 0.8203125
vt 0.421875 0.796875
vt 0.4296875 0.8203125
vt 0.421875 0.8203125
vt 0.4296875 0.796875
vt 0.4296875 0.75
vt 0.421875 0.7734375
vt 0.421875 0.75
vt 0.4296875 0.7734375
vt 0.421875 0.7734375
vt 0.4296875 0.75
vt 0.4453125 0.7890625
vt 0.4296875 0.828125
vt 0.4296875 0.8203125
vt 0.4453125 0.7890625
vt 0.4296875 0.796875
vt 0.4296875 0.7890625
vt 0.4453125 0.7890625
vt 0.4296875 0.8203125
vt 0.4296875 0.796875
vt 0.4453125 0.796875
vt 0.4296875 0.828125
vt 0.4453125 0.7890625
vt 0.4453125 0.8203125
vt 0.4296875 0.828125
vt 0.4453125 0.796875
vt 0.4453125 0.828125
vt 0.4296875 0.828125
vt 0.4453125 0.8203125
vt 0.4453125 0.7421875
vt 0.4296875 0.78125
vt 0.4296875 0.7734375
vt 0.4453125 0.7421875
vt 0.4296875 0.7734375
vt 0.4296875 0.75
vt 0.4453125 0.7421875
vt 0.4296875 0.75
vt 0.4296875 0.7421875
vt 0.4453125 0.75
vt 0.4296875 0.78125
vt 0.4453125 0.7421875
vt 0.4453125 0.7734375
vt 0.4296875 0.78125
vt 0.4453125 0.75
vt 0.4453125 0.78125
vt 0.4296875 0.78125
vt 0.4453125 0.7734375
vt 0.453125 0.796875
vt 0.4453125 0.8203125
vt 0.4453125 0.796875
vt 0.453125 0.8203125
vt 0.4453125 0.8203125
vt 0.453125 0.796875
vt 0.453125 0.75
vt 0.4453125 0.7734375
vt 0.4453125 0.75
vt 0.453125 0.7734375
vt 0.4453125 0.7734375
vt 0.453125 0.75
vt 0.453125 0.703125
vt 0.453125 0.7265625
vt 0.4453125 0.703125
vt 0.4453125 0.703125
vt 0.453125 0.7265625
vt 0.4453125 0.7265625
vt 0.46875 0.96875
vt 0.46875 0.9921875
vt 0.4609375 0.96875
vt 0.4609375 0.96875
vt 0.46875 0.9921875
vt 0.4609375 0.9921875
vt 0.4453125 0.7265625
vt 0.4453125 0.734375
vt 0.4296875 0.6953125
vt 0.4453125 0.6953125
vt 0.4453125 0.703125
vt 0.4296875 0.6953125
vt 0.4453125 0.703125
vt 0.4453125 0.7265625
vt 0.4296875 0.6953125
vt 0.4296875 0.6953125
vt 0.4453125 0.734375
vt 0.4296875 0.703125
vt 0.4296875 0.703125
vt 0.4453125 0.734375
vt 0.4296875 0.7265625
vt 0.4296875 0.7265625
vt 0.4453125 0.734375
vt 0.4296875 0.734375
vt 0.4609375 0.9921875
vt 0.4609375 1
vt 0.4453125 0.9609375
vt 0.4609375 0.96875
vt 0.4609375 0.9921875
vt 0.4453125 0.9609375
vt 0.4609375 0.9609375
vt 0.4609375 0.96875
vt 0.4453125 0.9609375
vt 0.4453125 0.9609375
vt 0.4609375 1
vt 0.4453125 0.96875
vt 0.4453125 0.96875
vt 0.4609375 1
vt 0.4453125 0.9921875
vt 0.4453125 0.9921875
vt 0.4609375 1
vt 0.4453125 1
vt 0.4296875 0.703125
vt 0.4296875 0.7265625
vt 0.421875 0.703125
vt 0.421875 0.703125
vt 0.4296875 0.7265625
vt 0.421875 0.7265625
vt 0.4453125 0.96875
vt 0.4453125 0.9921875
vt 0.4375 0.96875
vt 0.4375 0.96875
vt 0.4453125 0.9921875
vt 0.4375 0.9921875
vt 0.359375 0.6953125
vt 0.375 0.78125
vt 0.359375 0.78125
vt 0.375 0.6953125
vt 0.375 0.78125
vt 0.359375 0.6953125
vt 0.21875 0.3828125
vt 0.2265625 0.46875
vt 0.21875 0.46875
vt 0.2265625 0.3828125
vt 0.2265625 0.46875
vt 0.21875 0.3828125
vt 0.234375 0.3828125
vt 0.2421875 0.46875
vt 0.234375 0.46875
vt 0.2421875 0.3828125
vt 0.2421875 0.46875
vt 0.234375 0.3828125
vt 0.359375 0.6015625
vt 0.375 0.6875
vt 0.359375 0.6875
vt 0.375 0.6015625
vt 0.375 0.6875
vt 0.359375 0.6015625
vt 0.25 0.3828125
vt 0.2578125 0.46875
vt 0.25 0.46875
vt 0.2578125 0.3828125
vt 0.2578125 0.46875
vt 0.25 0.3828125
vt 0.265625 0.3828125
vt 0.2734375 0.46875
vt 0.265625 0.46875
vt 0.2734375 0.3828125
vt 0.2734375 0.46875
vt 0.265625 0.3828125
vt 0.28125 0.3828125
vt 0.2890625 0.3828125
vt 0.28125 0.46875
vt 0.28125 0.46875
vt 0.2890625 0.3828125
vt 0.2890625 0.46875
vt 0.296875 0.3828125
vt 0.3046875 0.3828125
vt 0.296875 0.46875
vt 0.296875 0.46875
vt 0.3046875 0.3828125
vt 0.3046875 0.46875
vt 0.375 0.7890625
vt 0.390625 0.7890625
vt 0.375 0.875
vt 0.375 0.875
vt 0.390625 0.7890625
vt 0.390625 0.875
vt 0.3125 0.3828125
vt 0.3203125 0.3828125
vt 0.3125 0.46875
vt 0.3125 0.46875
vt 0.3203125 0.3828125
vt 0.3203125 0.46875
vt 0.53125 0.6015625
vt 0.5390625 0.6015625
vt 0.53125 0.6875
vt 0.53125 0.6875
vt 0.5390625 0.6015625
vt 0.5390625 0.6875
vt 0.375 0.6953125
vt 0.390625 0.6953125
vt 0.375 0.78125
vt 0.375 0.78125
vt 0.390625 0.6953125
vt 0.390625 0.78125
vn -1 0 0
vn -1 0 0
vn -1 0 0
vn -1 0 0
vn -1 0 0
vn -1 0 0
vn -1 0 0
vn -1 0 0
vn -1 0 0
vn -1 0 0
vn -1 0 0
vn -1 0 0
vn 1 0 0
vn 1 0 0
vn 1 0 0
vn 1 0 0
vn 1 0 0
vn 1 0 0
vn 1 0 0
vn 1 0 0
vn 1 0 0
vn 1 0 0
vn 1 0 0
vn 1 0 0
vn 0 0 1
vn 0 0 1
vn 0 0 1
vn 0 0 1
vn 0 0 1
vn 0 0 1
vn 0 0 1
vn 0 0 1
vn 0 0 1
vn 0 0 1
vn 0 0 1
vn 0 0 1
vn 0 0 1
vn 0 0 1
vn 0 0 1
vn 0 0 1
vn 0 0 1
vn 0 0 1
vn 0 0 1
vn 0 0 1
vn 0 0 -1
vn 0 0 -1
vn 0 0 -1
vn 0 0 -1
vn 0 0 -1
vn 0 0 -1
vn 0 0 -1
vn 0 0 -1
vn 0 0 -1
vn 0 0 -1
vn 0 0 -1
vn 0 0 -1
vn 0 0 -1
vn 0 0 -1
vn 0 0 -1
vn 0 0 -1
vn 0 0 -1
vn 0 0 -1
vn 0 0 -1
vn 0 0 -1
vn 0 -1 0
vn 0 -1 0
vn 0 -1 0
vn 0 -1 0
vn 0 -1 0
vn 0 -1 0
vn 0 -1 0
vn 0 -1 0
vn 0 -1 0
vn 0 -1 0
vn 0 -1 0
vn 0 -1 0
vn 0 1 0
vn 0 1 0
vn 0 1 0
vn 0 1 0
vn 0 1 0
vn 0 1 0
vn 0 1 0
vn 0 1 0
vn 0 1 0
vn 0 1 0
vn 0 1 0
vn 0 1 0
usemtl m_66542996-bcbe-7157-1d86-4c0797ef8370
f 433/793/265 434/794/265 435/795/265
f 436/796/266 434/797/266 433/798/266
f 437/799/267 438/800/267 439/801/267
f 440/802/268 438/803/268 437/804/268
f 441/805/269 442/806/269 443/807/269
f 444/808/270 442/809/270 441/810/270
f 445/811/271 446/812/271 447/813/271
f 448/814/272 446/815/272 445/816/272
f 449/817/273 450/818/273 451/819/273
f 452/820/274 450/821/274 449/822/274
f 453/823/275 454/824/275 455/825/275
f 456/826/276 454/827/276 453/828/276
f 457/829/277 458/830/277 459/831/277
f 459/832/278 458/833/278 460/834/278
f 461/835/279 462/836/279 463/837/279
f 463/838/280 462/839/280 464/840/280
f 465/841/281 466/842/281 467/843/281
f 467/844/282 466/845/282 468/846/282
f 469/847/283 470/848/283 471/849/283
f 471/850/284 470/851/284 472/852/284
f 473/853/285 474/854/285 475/855/285
f 475/856/286 474/857/286 476/858/286
f 477/859/287 478/860/287 479/861/287
f 479/862/288 478/863/288 480/864/288
f 481/865/289 482/866/289 483/867/289
f 484/868/290 482/869/290 481/870/290
f 485/871/291 486/872/291 487/873/291
f 488/874/292 486/875/292 485/876/292
f 489/877/293 490/878/293 484/879/293
f 489/880/294 481/881/294 491/882/294
f 489/883/295 484/884/295 481/885/295
f 492/886/296 490/887/296 489/888/296
f 493/889/297 490/890/297 492/891/297
f 494/892/298 490/893/298 493/894/298
f 495/895/299 496/896/299 488/897/299
f 495/898/300 488/899/300 485/900/300
f 495/901/301 485/902/301 497/903/301
f 498/904/302 496/905/302 495/906/302
f 499/907/303 496/908/303 498/909/303
f 500/910/304 496/911/304 499/912/304
f 501/913/305 493/914/305 492/915/305
f 502/916/306 493/917/306 501/918/306
f 503/919/307 499/920/307 498/921/307
f 504/922/308 499/923/308 503/924/308
f 505/925/309 506/926/309 507/927/309
f 507/928/310 506/929/310 508/930/310
f 509/931/311 510/932/311 511/933/311
f 511/934/312 510/935/312 512/936/312
f 508/937/313 513/938/313 514/939/313
f 515/940/314 507/941/314 514/942/314
f 507/943/315 508/944/315 514/945/315
f 514/946/316 513/947/316 516/948/316
f 516/949/317 513/950/317 517/951/317
f 517/952/318 513/953/318 518/954/318
f 512/955/319 519/956/319 520/957/319
f 511/958/320 512/959/320 520/960/320
f 521/961/321 511/962/321 520/963/321
f 520/964/322 519/965/322 522/966/322
f 522/967/323 519/968/323 523/969/323
f 523/970/324 519/971/324 524/972/324
f 516/973/325 517/974/325 525/975/325
f 525/976/326 517/977/326 526/978/326
f 522/979/327 523/980/327 527/981/327
f 527/982/328 523/983/328 528/984/328
f 529/985/329 530/986/329 531/987/329
f 532/988/330 530/989/330 529/990/330
f 533/991/331 534/992/331 535/993/331
f 536/994/332 534/995/332 533/996/332
f 537/997/333 538/998/333 539/999/333
f 540/1000/334 538/1001/334 537/1002/334
f 541/1003/335 542/1004/335 543/1005/335
f 544/1006/336 542/1007/336 541/1008/336
f 545/1009/337 546/1010/337 547/1011/337
f 548/1012/338 546/1013/338 545/1014/338
f 549/1015/339 550/1016/339 551/1017/339
f 552/1018/340 550/1019/340 549/1020/340
f 553/1021/341 554/1022/341 555/1023/341
f 555/1024/342 554/1025/342 556/1026/342
f 557/1027/343 558/1028/343 559/1029/343
f 559/1030/344 558/1031/344 560/1032/344
f 561/1033/345 562/1034/345 563/1035/345
f 563/1036/346 562/1037/346 564/1038/346
f 565/1039/347 566/1040/347 567/1041/347
f 567/1042/348 566/1043/348 568/1044/348
f 569/1045/349 570/1046/349 571/1047/349
f 571/1048/350 570/1049/350 572/1050/350
f 573/1051/351 574/1052/351 575/1053/351
f 575/1054/352 574/1055/352 576/1056/352
o fence_post_center
v -0.15625 0.9375 0.0625
v -0.15625 0 -0.0625
v -0.15625 0 0.0625
v -0.15625 0.9375 -0.0625
v -0.125 0.9375 0.09375
v -0.125 0 0.0625
v -0.125 0 0.09375
v -0.125 0.9375 0.0625
v -0.125 0.9375 -0.0625
v -0.125 0 -0.09375
v -0.125 0 -0.0625
v -0.125 0.9375 -0.09375
v -0.125 0.96875 0.0625
v -0.125 0.96875 -0.0625
v -0.09375 0.9375 0.125
v -0.09375 0 0.09375
v -0.09375 0 0.125
v -0.09375 0.9375 0.09375
v -0.09375 0.9375 -0.09375
v -0.09375 0 -0.125
v -0.09375 0 -0.09375
v -0.09375 0.9375 -0.125
v -0.09375 0.96875 0.09375
v -0.09375 0.9375 0.0625
v -0.09375 0.96875 0.0625
v -0.09375 0.96875 -0.0625
v -0.09375 0.9375 -0.0625
v -0.09375 0.96875 -0.09375
v -0.09375 1 0.0625
v -0.09375 1 -0.0625
v -0.0625 0.9375 0.15625
v -0.0625 0 0.125
v -0.0625 0 0.15625
v -0.0625 0.9375 0.125
v -0.0625 0.9375 -0.125
v -0.0625 0 -0.15625
v -0.0625 0 -0.125
v -0.0625 0.9375 -0.15625
v -0.0625 0.96875 0.125
v -0.0625 0.9375 0.09375
v -0.0625 0.96875 0.09375
v -0.0625 0.96875 -0.09375
v -0.0625 0.9375 -0.09375
v -0.0625 0.96875 -0.125
v -0.0625 1 0.09375
v -0.0625 0.96875 0.0625
v -0.0625 1 0.0625
v -0.0625 1 -0.0625
v -0.0625 0.96875 -0.0625
v -0.0625 1 -0.09375
v 0.0625 0 0.15625
v 0.0625 0 0.125
v 0.0625 0.9375 0.15625
v 0.0625 0.9375 0.125
v 0.0625 0 -0.125
v 0.0625 0 -0.15625
v 0.0625 0.9375 -0.125
v 0.0625 0.9375 -0.15625
v 0.0625 0.9375 0.09375
v 0.0625 0.96875 0.125
v 0.0625 0.96875 0.09375
v 0.0625 0.9375 -0.09375
v 0.0625 0.96875 -0.09375
v 0.0625 0.96875 -0.125
v 0.0625 0.96875 0.0625
v 0.0625 1 0.09375
v 0.0625 1 0.0625
v 0.0625 0.96875 -0.0625
v 0.0625 1 -0.0625
v 0.0625 1 -0.09375
v 0.09375 0 0.125
v 0.09375 0 0.09375
v 0.09375 0.9375 0.125
v 0.09375 0.9375 0.09375
v 0.09375 0 -0.09375
v 0.09375 0 -0.125
v 0.09375 0.9375 -0.09375
v 0.09375 0.9375 -0.125
v 0.09375 0.9375 0.0625
v 0.09375 0.96875 0.09375
v 0.09375 0.96875 0.0625
v 0.09375 0.9375 -0.0625
v 0.09375 0.96875 -0.0625
v 0.09375 0.96875 -0.09375
v 0.09375 1 0.0625
v 0.09375 1 -0.0625
v 0.125 0 0.09375
v 0.125 0 0.0625
v 0.125 0.9375 0.09375
v 0.125 0.9375 0.0625
v 0.125 0 -0.0625
v 0.125 0 -0.09375
v 0.125 0.9375 -0.0625
v 0.125 0.9375 -0.09375
v 0.125 0.96875 0.0625
v 0.125 0.96875 -0.0625
v 0.15625 0 0.0625
v 0.15625 0 -0.0625
v 0.15625 0.9375 0.0625
v 0.15625 0.9375 -0.0625
v 0.0625 0 0.15625
v -0.0625 0.9375 0.15625
v -0.0625 0 0.15625
v 0.0625 0.9375 0.15625
v -0.0625 0 0.125
v -0.09375 0.9375 0.125
v -0.09375 0 0.125
v -0.0625 0.9375 0.125
v 0.0625 0.9375 0.125
v -0.0625 0.96875 0.125
v 0.0625 0.96875 0.125
v 0.09375 0 0.125
v 0.0625 0 0.125
v 0.09375 0.9375 0.125
v -0.09375 0 0.09375
v -0.125 0.9375 0.09375
v -0.125 0 0.09375
v -0.09375 0.9375 0.09375
v -0.0625 0.9375 0.09375
v -0.09375 0.96875 0.09375
v -0.0625 0.96875 0.09375
v 0.0625 0.96875 0.09375
v -0.0625 1 0.09375
v 0.0625 1 0.09375
v 0.09375 0.9375 0.09375
v 0.0625 0.9375 0.09375
v 0.09375 0.96875 0.09375
v 0.125 0 0.09375
v 0.09375 0 0.09375
v 0.125 0.9375 0.09375
v -0.125 0 0.0625
v -0.15625 0.9375 0.0625
v -0.15625 0 0.0625
v -0.125 0.9375 0.0625
v -0.09375 0.9375 0.0625
v -0.125 0.96875 0.0625
v -0.09375 0.96875 0.0625
v -0.0625 0.96875 0.0625
v -0.09375 1 0.0625
v -0.0625 1 0.0625
v 0.09375 0.96875 0.0625
v 0.0625 1 0.0625
v 0.0625 0.96875 0.0625
v 0.09375 1 0.0625
v 0.125 0.9375 0.0625
v 0.09375 0.9375 0.0625
v 0.125 0.96875 0.0625
v 0.15625 0 0.0625
v 0.125 0 0.0625
v 0.15625 0.9375 0.0625
v -0.15625 0 -0.0625
v -0.15625 0.9375 -0.0625
v -0.125 0 -0.0625
v -0.125 0.9375 -0.0625
v -0.125 0.96875 -0.0625
v -0.09375 0.9375 -0.0625
v -0.09375 0.96875 -0.0625
v -0.09375 1 -0.0625
v -0.0625 0.96875 -0.0625
v -0.0625 1 -0.0625
v 0.0625 0.96875 -0.0625
v 0.0625 1 -0.0625
v 0.09375 0.96875 -0.0625
v 0.09375 1 -0.0625
v 0.09375 0.9375 -0.0625
v 0.125 0.9375 -0.0625
v 0.125 0.96875 -0.0625
v 0.125 0 -0.0625
v 0.15625 0 -0.0625
v 0.15625 0.9375 -0.0625
v -0.125 0 -0.09375
v -0.125 0.9375 -0.09375
v -0.09375 0 -0.09375
v -0.09375 0.9375 -0.09375
v -0.09375 0.96875 -0.09375
v -0.0625 0.9375 -0.09375
v -0.0625 0.96875 -0.09375
v -0.0625 1 -0.09375
v 0.0625 0.96875 -0.09375
v 0.0625 1 -0.09375
v 0.0625 0.9375 -0.09375
v 0.09375 0.9375 -0.09375
v 0.09375 0.96875 -0.09375
v 0.09375 0 -0.09375
v 0.125 0 -0.09375
v 0.125 0.9375 -0.09375
v -0.09375 0 -0.125
v -0.09375 0.9375 -0.125
v -0.0625 0 -0.125
v -0.0625 0.9375 -0.125
v -0.0625 0.96875 -0.125
v 0.0625 0.9375 -0.125
v 0.0625 0.96875 -0.125
v 0.0625 0 -0.125
v 0.09375 0 -0.125
v 0.09375 0.9375 -0.125
v -0.0625 0 -0.15625
v -0.0625 0.9375 -0.15625
v 0.0625 0 -0.15625
v 0.0625 0.9375 -0.15625
v -0.0625 0 0.125
v 0.0625 0 0.15625
v -0.0625 0 0.15625
v 0.0625 0 0.125
v -0.09375 0 0.09375
v -0.09375 0 0.125
v 0.09375 0 0.125
v 0.09375 0 0.09375
v -0.125 0 0.0625
v -0.125 0 0.09375
v 0.125 0 0.09375
v 0.125 0 0.0625
v -0.15625 0 -0.0625
v -0.15625 0 0.0625
v 0.15625 0 0.0625
v -0.125 0 -0.0625
v 0.125 0 -0.0625
v 0.15625 0 -0.0625
v -0.125 0 -0.09375
v -0.09375 0 -0.09375
v 0.09375 0 -0.09375
v 0.125 0 -0.09375
v -0.09375 0 -0.125
v -0.0625 0 -0.125
v 0.0625 0 -0.125
v 0.09375 0 -0.125
v -0.0625 0 -0.15625
v 0.0625 0 -0.15625
v -0.0625 0.9375 0.15625
v 0.0625 0.9375 0.15625
v -0.0625 0.9375 0.125
v 0.0625 0.9375 0.125
v -0.09375 0.9375 0.125
v -0.09375 0.9375 0.09375
v -0.0625 0.9375 0.09375
v 0.09375 0.9375 0.125
v 0.0625 0.9375 0.09375
v 0.09375 0.9375 0.09375
v -0.125 0.9375 0.09375
v -0.125 0.9375 0.0625
v -0.09375 0.9375 0.0625
v 0.125 0.9375 0.09375
v 0.09375 0.9375 0.0625
v 0.125 0.9375 0.0625
v -0.15625 0.9375 0.0625
v -0.15625 0.9375 -0.0625
v -0.125 0.9375 -0.0625
v 0.15625 0.9375 0.0625
v 0.125 0.9375 -0.0625
v 0.15625 0.9375 -0.0625
v -0.09375 0.9375 -0.0625
v -0.125 0.9375 -0.09375
v -0.09375 0.9375 -0.09375
v 0.09375 0.9375 -0.0625
v 0.09375 0.9375 -0.09375
v 0.125 0.9375 -0.09375
v -0.0625 0.9375 -0.09375
v -0.09375 0.9375 -0.125
v -0.0625 0.9375 -0.125
v 0.0625 0.9375 -0.09375
v 0.0625 0.9375 -0.125
v 0.09375 0.9375 -0.125
v -0.0625 0.9375 -0.15625
v 0.0625 0.9375 -0.15625
v -0.0625 0.96875 0.125
v 0.0625 0.96875 0.125
v -0.0625 0.96875 0.09375
v 0.0625 0.96875 0.09375
v -0.09375 0.96875 0.09375
v -0.09375 0.96875 0.0625
v -0.0625 0.96875 0.0625
v 0.09375 0.96875 0.09375
v 0.0625 0.96875 0.0625
v 0.09375 0.96875 0.0625
v -0.125 0.96875 0.0625
v -0.125 0.96875 -0.0625
v -0.09375 0.96875 -0.0625
v 0.125 0.96875 0.0625
v 0.09375 0.96875 -0.0625
v 0.125 0.96875 -0.0625
v -0.0625 0.96875 -0.0625
v -0.09375 0.96875 -0.09375
v -0.0625 0.96875 -0.09375
v 0.0625 0.96875 -0.0625
v 0.0625 0.96875 -0.09375
v 0.09375 0.96875 -0.09375
v -0.0625 0.96875 -0.125
v 0.0625 0.96875 -0.125
v -0.0625 1 0.09375
v 0.0625 1 0.09375
v -0.0625 1 0.0625
v 0.0625 1 0.0625
v -0.09375 1 0.0625
v -0.09375 1 -0.0625
v 0.09375 1 0.0625
v -0.0625 1 -0.0625
v 0.0625 1 -0.0625
v 0.09375 1 -0.0625
v -0.0625 1 -0.09375
v 0.0625 1 -0.09375
vt 0.03125 1
vt 0 0.765625
vt 0.03125 0.765625
vt 0 1
vt 0 0.765625
vt 0.03125 1
vt 0.1015625 0.734375
vt 0.09375 0.5
vt 0.1015625 0.5
vt 0.09375 0.734375
vt 0.09375 0.5
vt 0.1015625 0.734375
vt 0.1171875 0.734375
vt 0.109375 0.5
vt 0.1171875 0.5
vt 0.109375 0.734375
vt 0.109375 0.5
vt 0.1171875 0.734375
vt 0.28125 0.96875
vt 0.25 0.9609375
vt 0.28125 0.9609375
vt 0.25 0.96875
vt 0.25 0.9609375
vt 0.28125 0.96875
vt 0.1328125 0.734375
vt 0.125 0.5
vt 0.1328125 0.5
vt 0.125 0.734375
vt 0.125 0.5
vt 0.1328125 0.734375
vt 0.1484375 0.734375
vt 0.140625 0.5
vt 0.1484375 0.5
vt 0.140625 0.734375
vt 0.140625 0.5
vt 0.1484375 0.734375
vt 0.1328125 1
vt 0.125 0.9921875
vt 0.1328125 0.9921875
vt 0.125 1
vt 0.125 0.9921875
vt 0.1328125 1
vt 0.5390625 0.515625
vt 0.53125 0.5078125
vt 0.5390625 0.5078125
vt 0.53125 0.515625
vt 0.53125 0.5078125
vt 0.5390625 0.515625
vt 0.3125 0.96875
vt 0.28125 0.9609375
vt 0.3125 0.9609375
vt 0.28125 0.96875
vt 0.28125 0.9609375
vt 0.3125 0.96875
vt 0.1640625 0.734375
vt 0.15625 0.5
vt 0.1640625 0.5
vt 0.15625 0.734375
vt 0.15625 0.5
vt 0.1640625 0.734375
vt 0.1796875 0.734375
vt 0.171875 0.5
vt 0.1796875 0.5
vt 0.171875 0.734375
vt 0.171875 0.5
vt 0.1796875 0.734375
vt 0.5078125 0.46875
vt 0.5 0.4609375
vt 0.5078125 0.4609375
vt 0.5 0.46875
vt 0.5 0.4609375
vt 0.5078125 0.46875
vt 0.5234375 0.46875
vt 0.515625 0.4609375
vt 0.5234375 0.4609375
vt 0.515625 0.46875
vt 0.515625 0.4609375
vt 0.5234375 0.46875
vt 0.5390625 0.46875
vt 0.53125 0.4609375
vt 0.5390625 0.4609375
vt 0.53125 0.46875
vt 0.53125 0.4609375
vt 0.5390625 0.46875
vt 0.0078125 0.453125
vt 0 0.4453125
vt 0.0078125 0.4453125
vt 0 0.453125
vt 0 0.4453125
vt 0.0078125 0.453125
vt 0.1875 0.5
vt 0.1953125 0.5
vt 0.1875 0.734375
vt 0.1875 0.734375
vt 0.1953125 0.5
vt 0.1953125 0.734375
vt 0.203125 0.5
vt 0.2109375 0.5
vt 0.203125 0.734375
vt 0.203125 0.734375
vt 0.2109375 0.5
vt 0.2109375 0.734375
vt 0.015625 0.4453125
vt 0.0234375 0.4453125
vt 0.015625 0.453125
vt 0.015625 0.453125
vt 0.0234375 0.4453125
vt 0.0234375 0.453125
vt 0.03125 0.4453125
vt 0.0390625 0.4453125
vt 0.03125 0.453125
vt 0.03125 0.453125
vt 0.0390625 0.4453125
vt 0.0390625 0.453125
vt 0.046875 0.4453125
vt 0.0546875 0.4453125
vt 0.046875 0.453125
vt 0.046875 0.453125
vt 0.0546875 0.4453125
vt 0.0546875 0.453125
vt 0.0625 0.4453125
vt 0.0703125 0.4453125
vt 0.0625 0.453125
vt 0.0625 0.453125
vt 0.0703125 0.4453125
vt 0.0703125 0.453125
vt 0.21875 0.5
vt 0.2265625 0.5
vt 0.21875 0.734375
vt 0.21875 0.734375
vt 0.2265625 0.5
vt 0.2265625 0.734375
vt 0.234375 0.5
vt 0.2421875 0.5
vt 0.234375 0.734375
vt 0.234375 0.734375
vt 0.2421875 0.5
vt 0.2421875 0.734375
vt 0.078125 0.4453125
vt 0.0859375 0.4453125
vt 0.078125 0.453125
vt 0.078125 0.453125
vt 0.0859375 0.4453125
vt 0.0859375 0.453125
vt 0.546875 0.8671875
vt 0.5546875 0.8671875
vt 0.546875 0.875
vt 0.546875 0.875
vt 0.5546875 0.8671875
vt 0.5546875 0.875
vt 0.28125 0.5234375
vt 0.3125 0.5234375
vt 0.28125 0.53125
vt 0.28125 0.53125
vt 0.3125 0.5234375
vt 0.3125 0.53125
vt 0.25 0.5
vt 0.2578125 0.5
vt 0.25 0.734375
vt 0.25 0.734375
vt 0.2578125 0.5
vt 0.2578125 0.734375
vt 0.265625 0.5
vt 0.2734375 0.5
vt 0.265625 0.734375
vt 0.265625 0.734375
vt 0.2734375 0.5
vt 0.2734375 0.734375
vt 0.28125 0.5078125
vt 0.3125 0.5078125
vt 0.28125 0.515625
vt 0.28125 0.515625
vt 0.3125 0.5078125
vt 0.3125 0.515625
vt 0.03125 0.765625
vt 0.0625 0.765625
vt 0.03125 1
vt 0.03125 1
vt 0.0625 0.765625
vt 0.0625 1
vt 0.09375 0.765625
vt 0.0625 1
vt 0.0625 0.765625
vt 0.09375 1
vt 0.0625 1
vt 0.09375 0.765625
vt 0.2890625 0.53125
vt 0.28125 0.765625
vt 0.28125 0.53125
vt 0.2890625 0.765625
vt 0.28125 0.765625
vt 0.2890625 0.53125
vt 0.5625 0.8984375
vt 0.53125 0.90625
vt 0.53125 0.8984375
vt 0.5625 0.90625
vt 0.53125 0.90625
vt 0.5625 0.8984375
vt 0.0078125 0.46875
vt 0 0.703125
vt 0 0.46875
vt 0.0078125 0.703125
vt 0 0.703125
vt 0.0078125 0.46875
vt 0.0234375 0.46875
vt 0.015625 0.703125
vt 0.015625 0.46875
vt 0.0234375 0.703125
vt 0.015625 0.703125
vt 0.0234375 0.46875
vt 0.5546875 0.8515625
vt 0.546875 0.859375
vt 0.546875 0.8515625
vt 0.5546875 0.859375
vt 0.546875 0.859375
vt 0.5546875 0.8515625
vt 0.5625 0.8828125
vt 0.53125 0.890625
vt 0.53125 0.8828125
vt 0.5625 0.890625
vt 0.53125 0.890625
vt 0.5625 0.8828125
vt 0.5546875 0.8359375
vt 0.546875 0.84375
vt 0.546875 0.8359375
vt 0.5546875 0.84375
vt 0.546875 0.84375
vt 0.5546875 0.8359375
vt 0.0390625 0.46875
vt 0.03125 0.703125
vt 0.03125 0.46875
vt 0.0390625 0.703125
vt 0.03125 0.703125
vt 0.0390625 0.46875
vt 0.0546875 0.46875
vt 0.046875 0.703125
vt 0.046875 0.46875
vt 0.0546875 0.703125
vt 0.046875 0.703125
vt 0.0546875 0.46875
vt 0.5546875 0.8203125
vt 0.546875 0.828125
vt 0.546875 0.8203125
vt 0.5546875 0.828125
vt 0.546875 0.828125
vt 0.5546875 0.8203125
vt 0.5546875 0.8046875
vt 0.546875 0.8125
vt 0.546875 0.8046875
vt 0.5546875 0.8125
vt 0.546875 0.8125
vt 0.5546875 0.8046875
vt 0.5546875 0.7890625
vt 0.546875 0.796875
vt 0.546875 0.7890625
vt 0.5546875 0.796875
vt 0.546875 0.796875
vt 0.5546875 0.7890625
vt 0.5546875 0.7734375
vt 0.546875 0.78125
vt 0.546875 0.7734375
vt 0.5546875 0.78125
vt 0.546875 0.78125
vt 0.5546875 0.7734375
vt 0.0703125 0.46875
vt 0.0625 0.703125
vt 0.0625 0.46875
vt 0.0703125 0.703125
vt 0.0625 0.703125
vt 0.0703125 0.46875
vt 0.0859375 0.46875
vt 0.0859375 0.703125
vt 0.078125 0.46875
vt 0.078125 0.46875
vt 0.0859375 0.703125
vt 0.078125 0.703125
vt 0.5546875 0.7578125
vt 0.5546875 0.765625
vt 0.546875 0.7578125
vt 0.546875 0.7578125
vt 0.5546875 0.765625
vt 0.546875 0.765625
vt 0.5546875 0.7421875
vt 0.5546875 0.75
vt 0.546875 0.7421875
vt 0.546875 0.7421875
vt 0.5546875 0.75
vt 0.546875 0.75
vt 0.5546875 0.7265625
vt 0.5546875 0.734375
vt 0.546875 0.7265625
vt 0.546875 0.7265625
vt 0.5546875 0.734375
vt 0.546875 0.734375
vt 0.5546875 0.7109375
vt 0.5546875 0.71875
vt 0.546875 0.7109375
vt 0.546875 0.7109375
vt 0.5546875 0.71875
vt 0.546875 0.71875
vt 0.3046875 0.53125
vt 0.3046875 0.765625
vt 0.296875 0.53125
vt 0.296875 0.53125
vt 0.3046875 0.765625
vt 0.296875 0.765625
vt 0.3203125 0.734375
vt 0.3203125 0.96875
vt 0.3125 0.734375
vt 0.3125 0.734375
vt 0.3203125 0.96875
vt 0.3125 0.96875
vt 0.5546875 0.6953125
vt 0.5546875 0.703125
vt 0.546875 0.6953125
vt 0.546875 0.6953125
vt 0.5546875 0.703125
vt 0.546875 0.703125
vt 0.359375 0.4609375
vt 0.359375 0.46875
vt 0.328125 0.4609375
vt 0.328125 0.4609375
vt 0.359375 0.46875
vt 0.328125 0.46875
vt 0.5546875 0.6796875
vt 0.5546875 0.6875
vt 0.546875 0.6796875
vt 0.546875 0.6796875
vt 0.5546875 0.6875
vt 0.546875 0.6875
vt 0.3203125 0.5
vt 0.3203125 0.734375
vt 0.3125 0.5
vt 0.3125 0.5
vt 0.3203125 0.734375
vt 0.3125 0.734375
vt 0.3359375 0.734375
vt 0.3359375 0.96875
vt 0.328125 0.734375
vt 0.328125 0.734375
vt 0.3359375 0.96875
vt 0.328125 0.96875
vt 0.390625 0.4609375
vt 0.390625 0.46875
vt 0.359375 0.4609375
vt 0.359375 0.4609375
vt 0.390625 0.46875
vt 0.359375 0.46875
vt 0.3359375 0.5
vt 0.3359375 0.734375
vt 0.328125 0.5
vt 0.328125 0.5
vt 0.3359375 0.734375
vt 0.328125 0.734375
vt 0.125 0.765625
vt 0.125 1
vt 0.09375 0.765625
vt 0.09375 0.765625
vt 0.125 1
vt 0.09375 1
vt 0.1484375 0.9921875
vt 0.1796875 1
vt 0.1484375 1
vt 0.1796875 0.9921875
vt 0.1796875 1
vt 0.1484375 0.9921875
vt 0.140625 0.984375
vt 0.1484375 0.9921875
vt 0.140625 0.9921875
vt 0.140625 0.984375
vt 0.1875 0.9921875
vt 0.1796875 0.9921875
vt 0.140625 0.984375
vt 0.1796875 0.9921875
vt 0.1484375 0.9921875
vt 0.1875 0.984375
vt 0.1875 0.9921875
vt 0.140625 0.984375
vt 0.1328125 0.9765625
vt 0.140625 0.984375
vt 0.1328125 0.984375
vt 0.1328125 0.9765625
vt 0.1953125 0.984375
vt 0.1875 0.984375
vt 0.1328125 0.9765625
vt 0.1875 0.984375
vt 0.140625 0.984375
vt 0.1953125 0.9765625
vt 0.1953125 0.984375
vt 0.1328125 0.9765625
vt 0.125 0.9453125
vt 0.1328125 0.9765625
vt 0.125 0.9765625
vt 0.125 0.9453125
vt 0.203125 0.9765625
vt 0.1953125 0.9765625
vt 0.125 0.9453125
vt 0.1953125 0.9765625
vt 0.1328125 0.9765625
vt 0.1328125 0.9453125
vt 0.203125 0.9765625
vt 0.125 0.9453125
vt 0.1953125 0.9453125
vt 0.203125 0.9765625
vt 0.1328125 0.9453125
vt 0.203125 0.9453125
vt 0.203125 0.9765625
vt 0.1953125 0.9453125
vt 0.1328125 0.9375
vt 0.1953125 0.9453125
vt 0.1328125 0.9453125
vt 0.140625 0.9375
vt 0.1953125 0.9453125
vt 0.1328125 0.9375
vt 0.1875 0.9375
vt 0.1953125 0.9453125
vt 0.140625 0.9375
vt 0.1953125 0.9375
vt 0.1953125 0.9453125
vt 0.1875 0.9375
vt 0.140625 0.9296875
vt 0.1875 0.9375
vt 0.140625 0.9375
vt 0.1484375 0.9296875
vt 0.1875 0.9375
vt 0.140625 0.9296875
vt 0.1796875 0.9296875
vt 0.1875 0.9375
vt 0.1484375 0.9296875
vt 0.1875 0.9296875
vt 0.1875 0.9375
vt 0.1796875 0.9296875
vt 0.1484375 0.921875
vt 0.1796875 0.9296875
vt 0.1484375 0.9296875
vt 0.1796875 0.921875
vt 0.1796875 0.9296875
vt 0.1484375 0.921875
vt 0.390625 0.4609375
vt 0.421875 0.4609375
vt 0.390625 0.46875
vt 0.390625 0.46875
vt 0.421875 0.4609375
vt 0.421875 0.46875
vt 0.328125 0.4453125
vt 0.3359375 0.4453125
vt 0.328125 0.453125
vt 0.328125 0.453125
vt 0.3359375 0.4453125
vt 0.3359375 0.453125
vt 0.546875 0.6640625
vt 0.5546875 0.6640625
vt 0.546875 0.671875
vt 0.546875 0.671875
vt 0.5546875 0.6640625
vt 0.5546875 0.671875
vt 0.34375 0.4453125
vt 0.3515625 0.4453125
vt 0.34375 0.453125
vt 0.34375 0.453125
vt 0.3515625 0.4453125
vt 0.3515625 0.453125
vt 0.546875 0.6484375
vt 0.5546875 0.6484375
vt 0.546875 0.65625
vt 0.546875 0.65625
vt 0.5546875 0.6484375
vt 0.5546875 0.65625
vt 0.296875 0.921875
vt 0.3046875 0.921875
vt 0.296875 0.953125
vt 0.296875 0.953125
vt 0.3046875 0.921875
vt 0.3046875 0.953125
vt 0.53125 0.5625
vt 0.5390625 0.5625
vt 0.53125 0.59375
vt 0.53125 0.59375
vt 0.5390625 0.5625
vt 0.5390625 0.59375
vt 0.359375 0.4453125
vt 0.3671875 0.4453125
vt 0.359375 0.453125
vt 0.359375 0.453125
vt 0.3671875 0.4453125
vt 0.3671875 0.453125
vt 0.546875 0.6328125
vt 0.5546875 0.6328125
vt 0.546875 0.640625
vt 0.546875 0.640625
vt 0.5546875 0.6328125
vt 0.5546875 0.640625
vt 0.375 0.4453125
vt 0.3828125 0.4453125
vt 0.375 0.453125
vt 0.375 0.453125
vt 0.3828125 0.4453125
vt 0.3828125 0.453125
vt 0.546875 0.6171875
vt 0.5546875 0.6171875
vt 0.546875 0.625
vt 0.546875 0.625
vt 0.5546875 0.6171875
vt 0.5546875 0.625
vt 0.421875 0.4609375
vt 0.453125 0.4609375
vt 0.421875 0.46875
vt 0.421875 0.46875
vt 0.453125 0.4609375
vt 0.453125 0.46875
vt 0.53125 0.5546875
vt 0.5625 0.5546875
vt 0.53125 0.5625
vt 0.53125 0.5625
vt 0.5625 0.5546875
vt 0.5625 0.5625
vt 0.390625 0.4453125
vt 0.3984375 0.4453125
vt 0.390625 0.453125
vt 0.390625 0.453125
vt 0.3984375 0.4453125
vt 0.3984375 0.453125
vt 0.546875 0.6015625
vt 0.5546875 0.6015625
vt 0.546875 0.609375
vt 0.546875 0.609375
vt 0.5546875 0.6015625
vt 0.5546875 0.609375
vt 0.453125 0.4375
vt 0.4609375 0.4375
vt 0.453125 0.46875
vt 0.453125 0.46875
vt 0.4609375 0.4375
vt 0.4609375 0.46875
vt 0.53125 0.515625
vt 0.5390625 0.515625
vt 0.53125 0.546875
vt 0.53125 0.546875
vt 0.5390625 0.515625
vt 0.5390625 0.546875
vt 0.40625 0.4453125
vt 0.4140625 0.4453125
vt 0.40625 0.453125
vt 0.40625 0.453125
vt 0.4140625 0.4453125
vt 0.4140625 0.453125
vt 0.546875 0.5859375
vt 0.5546875 0.5859375
vt 0.546875 0.59375
vt 0.546875 0.59375
vt 0.5546875 0.5859375
vt 0.5546875 0.59375
vt 0.46875 0.4609375
vt 0.5 0.4609375
vt 0.46875 0.46875
vt 0.46875 0.46875
vt 0.5 0.4609375
vt 0.5 0.46875
vt 0.2109375 0.953125
vt 0.2421875 0.953125
vt 0.2109375 0.9609375
vt 0.2109375 0.9609375
vt 0.2421875 0.953125
vt 0.2421875 0.9609375
vt 0.203125 0.9609375
vt 0.2109375 0.9609375
vt 0.203125 0.9921875
vt 0.2421875 0.9609375
vt 0.25 0.9609375
vt 0.203125 0.9921875
vt 0.2109375 0.9609375
vt 0.2421875 0.9609375
vt 0.203125 0.9921875
vt 0.203125 0.9921875
vt 0.25 0.9609375
vt 0.2109375 0.9921875
vt 0.2109375 0.9921875
vt 0.25 0.9609375
vt 0.2421875 0.9921875
vt 0.2421875 0.9921875
vt 0.25 0.9609375
vt 0.25 0.9921875
vt 0.2109375 0.9921875
vt 0.2421875 0.9921875
vt 0.2109375 1
vt 0.2109375 1
vt 0.2421875 0.9921875
vt 0.2421875 1
vn -1 0 0
vn -1 0 0
vn -1 0 0
vn -1 0 0
vn -1 0 0
vn -1 0 0
vn -1 0 0
vn -1 0 0
vn -1 0 0
vn -1 0 0
vn -1 0 0
vn -1 0 0
vn -1 0 0
vn -1 0 0
vn -1 0 0
vn -1 0 0
vn -1 0 0
vn -1 0 0
vn -1 0 0
vn -1 0 0
vn -1 0 0
vn -1 0 0
vn -1 0 0
vn -1 0 0
vn -1 0 0
vn -1 0 0
vn -1 0 0
vn -1 0 0
vn -1 0 0
vn -1 0 0
vn 1 0 0
vn 1 0 0
vn 1 0 0
vn 1 0 0
vn 1 0 0
vn 1 0 0
vn 1 0 0
vn 1 0 0
vn 1 0 0
vn 1 0 0
vn 1 0 0
vn 1 0 0
vn 1 0 0
vn 1 0 0
vn 1 0 0
vn 1 0 0
vn 1 0 0
vn 1 0 0
vn 1 0 0
vn 1 0 0
vn 1 0 0
vn 1 0 0
vn 1 0 0
vn 1 0 0
vn 1 0 0
vn 1 0 0
vn 1 0 0
vn 1 0 0
vn 1 0 0
vn 1 0 0
vn 0 0 1
vn 0 0 1
vn 0 0 1
vn 0 0 1
vn 0 0 1
vn 0 0 1
vn 0 0 1
vn 0 0 1
vn 0 0 1
vn 0 0 1
vn 0 0 1
vn 0 0 1
vn 0 0 1
vn 0 0 1
vn 0 0 1
vn 0 0 1
vn 0 0 1
vn 0 0 1
vn 0 0 1
vn 0 0 1
vn 0 0 1
vn 0 0 1
vn 0 0 1
vn 0 0 1
vn 0 0 1
vn 0 0 1
vn 0 0 1
vn 0 0 1
vn 0 0 1
vn 0 0 1
vn 0 0 -1
vn 0 0 -1
vn 0 0 -1
vn 0 0 -1
vn 0 0 -1
vn 0 0 -1
vn 0 0 -1
vn 0 0 -1
vn 0 0 -1
vn 0 0 -1
vn 0 0 -1
vn 0 0 -1
vn 0 0 -1
vn 0 0 -1
vn 0 0 -1
vn 0 0 -1
vn 0 0 -1
vn 0 0 -1
vn 0 0 -1
vn 0 0 -1
vn 0 0 -1
vn 0 0 -1
vn 0 0 -1
vn 0 0 -1
vn 0 0 -1
vn 0 0 -1
vn 0 0 -1
vn 0 0 -1
vn 0 0 -1
vn 0 0 -1
vn 0 -1 0
vn 0 -1 0
vn 0 -1 0
vn 0 -1 0
vn 0 -1 0
vn 0 -1 0
vn 0 -1 0
vn 0 -1 0
vn 0 -1 0
vn 0 -1 0
vn 0 -1 0
vn 0 -1 0
vn 0 -1 0
vn 0 -1 0
vn 0 -1 0
vn 0 -1 0
vn 0 -1 0
vn 0 -1 0
vn 0 -1 0
vn 0 -1 0
vn 0 -1 0
vn 0 -1 0
vn 0 -1 0
vn 0 -1 0
vn 0 -1 0
vn 0 -1 0
vn 0 1 0
vn 0 1 0
vn 0 1 0
vn 0 1 0
vn 0 1 0
vn 0 1 0
vn 0 1 0
vn 0 1 0
vn 0 1 0
vn 0 1 0
vn 0 1 0
vn 0 1 0
vn 0 1 0
vn 0 1 0
vn 0 1 0
vn 0 1 0
vn 0 1 0
vn 0 1 0
vn 0 1 0
vn 0 1 0
vn 0 1 0
vn 0 1 0
vn 0 1 0
vn 0 1 0
vn 0 1 0
vn 0 1 0
vn 0 1 0
vn 0 1 0
vn 0 1 0
vn 0 1 0
vn 0 1 0
vn 0 1 0
vn 0 1 0
vn 0 1 0
vn 0 1 0
vn 0 1 0
vn 0 1 0
vn 0 1 0
vn 0 1 0
vn 0 1 0
vn 0 1 0
vn 0 1 0
vn 0 1 0
vn 0 1 0
vn 0 1 0
vn 0 1 0
vn 0 1 0
vn 0 1 0
vn 0 1 0
vn 0 1 0
usemtl m_66542996-bcbe-7157-1d86-4c0797ef8370
f 577/1057/353 578/1058/353 579/1059/353
f 580/1060/354 578/1061/354 577/1062/354
f 581/1063/355 582/1064/355 583/1065/355
f 584/1066/356 582/1067/356 581/1068/356
f 585/1069/357 586/1070/357 587/1071/357
f 588/1072/358 586/1073/358 585/1074/358
f 589/1075/359 585/1076/359 584/1077/359
f 590/1078/360 585/1079/360 589/1080/360
f 591/1081/361 592/1082/361 593/1083/361
f 594/1084/362 592/1085/362 591/1086/362
f 595/1087/363 596/1088/363 597/1089/363
f 598/1090/364 596/1091/364 595/1092/364
f 599/1093/365 600/1094/365 594/1095/365
f 601/1096/366 600/1097/366 599/1098/366
f 602/1099/367 595/1100/367 603/1101/367
f 604/1102/368 595/1103/368 602/1104/368
f 605/1105/369 602/1106/369 601/1107/369
f 606/1108/370 602/1109/370 605/1110/370
f 607/1111/371 608/1112/371 609/1113/371
f 610/1114/372 608/1115/372 607/1116/372
f 611/1117/373 612/1118/373 613/1119/373
f 614/1120/374 612/1121/374 611/1122/374
f 615/1123/375 616/1124/375 610/1125/375
f 617/1126/376 616/1127/376 615/1128/376
f 618/1129/377 611/1130/377 619/1131/377
f 620/1132/378 611/1133/378 618/1134/378
f 621/1135/379 622/1136/379 617/1137/379
f 623/1138/380 622/1139/380 621/1140/380
f 624/1141/381 618/1142/381 625/1143/381
f 626/1144/382 618/1145/382 624/1146/382
f 627/1147/383 628/1148/383 629/1149/383
f 629/1150/384 628/1151/384 630/1152/384
f 631/1153/385 632/1154/385 633/1155/385
f 633/1156/386 632/1157/386 634/1158/386
f 630/1159/387 635/1160/387 636/1161/387
f 636/1162/388 635/1163/388 637/1164/388
f 638/1165/389 633/1166/389 639/1167/389
f 639/1168/390 633/1169/390 640/1170/390
f 637/1171/391 641/1172/391 642/1173/391
f 642/1174/392 641/1175/392 643/1176/392
f 644/1177/393 639/1178/393 645/1179/393
f 645/1180/394 639/1181/394 646/1182/394
f 647/1183/395 648/1184/395 649/1185/395
f 649/1186/396 648/1187/396 650/1188/396
f 651/1189/397 652/1190/397 653/1191/397
f 653/1192/398 652/1193/398 654/1194/398
f 650/1195/399 655/1196/399 656/1197/399
f 656/1198/400 655/1199/400 657/1200/400
f 658/1201/401 653/1202/401 659/1203/401
f 659/1204/402 653/1205/402 660/1206/402
f 657/1207/403 659/1208/403 661/1209/403
f 661/1210/404 659/1211/404 662/1212/404
f 663/1213/405 664/1214/405 665/1215/405
f 665/1216/406 664/1217/406 666/1218/406
f 667/1219/407 668/1220/407 669/1221/407
f 669/1222/408 668/1223/408 670/1224/408
f 666/1225/409 669/1226/409 671/1227/409
f 671/1228/410 669/1229/410 672/1230/410
f 673/1231/411 674/1232/411 675/1233/411
f 675/1234/412 674/1235/412 676/1236/412
f 677/1237/413 678/1238/413 679/1239/413
f 680/1240/414 678/1241/414 677/1242/414
f 681/1243/415 682/1244/415 683/1245/415
f 684/1246/416 682/1247/416 681/1248/416
f 685/1249/417 686/1250/417 684/1251/417
f 687/1252/418 686/1253/418 685/1254/418
f 688/1255/419 685/1256/419 689/1257/419
f 690/1258/420 685/1259/420 688/1260/420
f 691/1261/421 692/1262/421 693/1263/421
f 694/1264/422 692/1265/422 691/1266/422
f 695/1267/423 696/1268/423 694/1269/423
f 697/1270/424 696/1271/424 695/1272/424
f 698/1273/425 699/1274/425 697/1275/425
f 700/1276/426 699/1277/426 698/1278/426
f 701/1279/427 698/1280/427 702/1281/427
f 703/1282/428 698/1283/428 701/1284/428
f 704/1285/429 701/1286/429 705/1287/429
f 706/1288/430 701/1289/430 704/1290/430
f 707/1291/431 708/1292/431 709/1293/431
f 710/1294/432 708/1295/432 707/1296/432
f 711/1297/433 712/1298/433 710/1299/433
f 713/1300/434 712/1301/434 711/1302/434
f 714/1303/435 715/1304/435 713/1305/435
f 716/1306/436 715/1307/436 714/1308/436
f 717/1309/437 718/1310/437 719/1311/437
f 720/1312/438 718/1313/438 717/1314/438
f 721/1315/439 717/1316/439 722/1317/439
f 723/1318/440 717/1319/440 721/1320/440
f 724/1321/441 721/1322/441 725/1323/441
f 726/1324/442 721/1325/442 724/1326/442
f 727/1327/443 728/1328/443 729/1329/443
f 729/1330/444 728/1331/444 730/1332/444
f 730/1333/445 731/1334/445 732/1335/445
f 732/1336/446 731/1337/446 733/1338/446
f 733/1339/447 734/1340/447 735/1341/447
f 735/1342/448 734/1343/448 736/1344/448
f 737/1345/449 738/1346/449 739/1347/449
f 739/1348/450 738/1349/450 740/1350/450
f 741/1351/451 739/1352/451 742/1353/451
f 742/1354/452 739/1355/452 743/1356/452
f 744/1357/453 742/1358/453 745/1359/453
f 745/1360/454 742/1361/454 746/1362/454
f 747/1363/455 748/1364/455 749/1365/455
f 749/1366/456 748/1367/456 750/1368/456
f 750/1369/457 751/1370/457 752/1371/457
f 752/1372/458 751/1373/458 753/1374/458
f 753/1375/459 754/1376/459 755/1377/459
f 755/1378/460 754/1379/460 756/1380/460
f 757/1381/461 755/1382/461 758/1383/461
f 758/1384/462 755/1385/462 759/1386/462
f 760/1387/463 758/1388/463 761/1389/463
f 761/1390/464 758/1391/464 762/1392/464
f 763/1393/465 764/1394/465 765/1395/465
f 765/1396/466 764/1397/466 766/1398/466
f 766/1399/467 767/1400/467 768/1401/467
f 768/1402/468 767/1403/468 769/1404/468
f 770/1405/469 768/1406/469 771/1407/469
f 771/1408/470 768/1409/470 772/1410/470
f 773/1411/471 774/1412/471 775/1413/471
f 775/1414/472 774/1415/472 776/1416/472
f 777/1417/473 778/1418/473 779/1419/473
f 780/1420/474 778/1421/474 777/1422/474
f 781/1423/475 777/1424/475 782/1425/475
f 781/1426/476 783/1427/476 780/1428/476
f 781/1429/477 780/1430/477 777/1431/477
f 784/1432/478 783/1433/478 781/1434/478
f 785/1435/479 781/1436/479 786/1437/479
f 785/1438/480 787/1439/480 784/1440/480
f 785/1441/481 784/1442/481 781/1443/481
f 788/1444/482 787/1445/482 785/1446/482
f 789/1447/483 785/1448/483 790/1449/483
f 789/1450/484 791/1451/484 788/1452/484
f 789/1453/485 788/1454/485 785/1455/485
f 792/1456/486 791/1457/486 789/1458/486
f 793/1459/487 791/1460/487 792/1461/487
f 794/1462/488 791/1463/488 793/1464/488
f 795/1465/489 793/1466/489 792/1467/489
f 796/1468/490 793/1469/490 795/1470/490
f 797/1471/491 793/1472/491 796/1473/491
f 798/1474/492 793/1475/492 797/1476/492
f 799/1477/493 797/1478/493 796/1479/493
f 800/1480/494 797/1481/494 799/1482/494
f 801/1483/495 797/1484/495 800/1485/495
f 802/1486/496 797/1487/496 801/1488/496
f 803/1489/497 801/1490/497 800/1491/497
f 804/1492/498 801/1493/498 803/1494/498
f 805/1495/499 806/1496/499 807/1497/499
f 807/1498/500 806/1499/500 808/1500/500
f 809/1501/501 807/1502/501 810/1503/501
f 810/1504/502 807/1505/502 811/1506/502
f 808/1507/503 812/1508/503 813/1509/503
f 813/1510/504 812/1511/504 814/1512/504
f 815/1513/505 810/1514/505 816/1515/505
f 816/1516/506 810/1517/506 817/1518/506
f 814/1519/507 818/1520/507 819/1521/507
f 819/1522/508 818/1523/508 820/1524/508
f 821/1525/509 816/1526/509 822/1527/509
f 822/1528/510 816/1529/510 823/1530/510
f 820/1531/511 824/1532/511 825/1533/511
f 825/1534/512 824/1535/512 826/1536/512
f 823/1537/513 827/1538/513 828/1539/513
f 828/1540/514 827/1541/514 829/1542/514
f 830/1543/515 825/1544/515 831/1545/515
f 831/1546/516 825/1547/516 832/1548/516
f 829/1549/517 833/1550/517 834/1551/517
f 834/1552/518 833/1553/518 835/1554/518
f 836/1555/519 831/1556/519 837/1557/519
f 837/1558/520 831/1559/520 838/1560/520
f 835/1561/521 837/1562/521 839/1563/521
f 839/1564/522 837/1565/522 840/1566/522
f 841/1567/523 842/1568/523 843/1569/523
f 843/1570/524 842/1571/524 844/1572/524
f 845/1573/525 843/1574/525 846/1575/525
f 846/1576/526 843/1577/526 847/1578/526
f 844/1579/527 848/1580/527 849/1581/527
f 849/1582/528 848/1583/528 850/1584/528
f 851/1585/529 846/1586/529 852/1587/529
f 852/1588/530 846/1589/530 853/1590/530
f 850/1591/531 854/1592/531 855/1593/531
f 855/1594/532 854/1595/532 856/1596/532
f 853/1597/533 857/1598/533 858/1599/533
f 858/1600/534 857/1601/534 859/1602/534
f 860/1603/535 855/1604/535 861/1605/535
f 861/1606/536 855/1607/536 862/1608/536
f 859/1609/537 861/1610/537 863/1611/537
f 863/1612/538 861/1613/538 864/1614/538
f 865/1615/539 866/1616/539 867/1617/539
f 867/1618/540 866/1619/540 868/1620/540
f 869/1621/541 867/1622/541 870/1623/541
f 868/1624/542 871/1625/542 870/1626/542
f 867/1627/543 868/1628/543 870/1629/543
f 870/1630/544 871/1631/544 872/1632/544
f 872/1633/545 871/1634/545 873/1635/545
f 873/1636/546 871/1637/546 874/1638/546
f 872/1639/547 873/1640/547 875/1641/547
f 875/1642/548 873/1643/548 876/1644/548